<svg version="1.2" xmlns="http://www.w3.org/2000/svg" viewBox="0 0 1476 768" width="1476" height="768"><style>.a{fill:#d8beae}</style><path class="a" d="m734.5 767.7q-304.4 0-608.9 0c-3.8 0-7.7-0.3-11.6 0.1-9 0.8-15.2-2.8-20.5-10.3-24.6-34.1-44.4-70.6-59.1-110.1-14.4-38.5-24.1-78.2-29.3-118.9-7.9-61.1-3.4-121.3 14.4-180.3 19.5-65.1 48.4-125.4 92.5-177.5 54.9-64.9 120.4-115.3 201-144.3 39-14 79-23.1 120.6-25.6 45.4-2.7 89 4.6 132.1 17.2 36.1 10.5 69.8 27 104.2 41.7 37.8 16.2 77.3 25.3 118.2 30.2 38 4.5 75.5-0.5 113-4.1 41.5-3.9 82.6-11.4 124.1-14.9 30.4-2.7 60.8-5.6 91.3-4.5 22.7 0.8 45.4 2.5 68 5.8 33.2 5 62.1 19.7 89 38.9 56 40 98.2 92.3 133 151 26.5 44.8 46.3 92.3 58.5 143 6.4 26.5 9.9 53.6 9.6 80.7-0.3 34-6.2 67.6-16 100.5-15.8 53.2-38.7 103.1-69 149.7-4.9 7.5-10 15-14.8 22.7-4 6.4-9.5 9.6-17.2 9-3.8-0.2-7.7 0-11.6 0q-305.7 0-611.5 0z"/></svg>