<svg version="1.2" xmlns="http://www.w3.org/2000/svg" viewBox="0 0 60 75" width="60" height="75"><style>.a{fill:#303030}</style><path fill-rule="evenodd" class="a" d="m56.7 71.1c-2.3 2.5-5.6 3.9-9 3.9h-35.4c-3.4 0-6.7-1.4-9-3.9-2.3-2.5-3.5-5.9-3.3-9.2l3.4-42.3c0.2-2.7 2.5-4.8 5.3-4.8h6.7v9.8c0 1.2 1 2.2 2.2 2.2 1.2 0 2.2-1 2.2-2.2v-9.8h20.4v9.8c0 1.2 1 2.2 2.2 2.2 1.2 0 2.2-1 2.2-2.2v-9.8h6.7c2.8 0 5.1 2.1 5.3 4.8l3.4 42.2c0.2 3.4-1 6.8-3.3 9.3zm-16.7-33.9c-0.9-0.8-2.3-0.8-3.1 0l-9.9 9.9-3.9-3.8c-0.8-0.9-2.2-0.9-3.1 0-0.9 0.8-0.9 2.2 0 3.1l5.4 5.3c0.4 0.4 1 0.7 1.6 0.7 0.5 0 1.1-0.3 1.5-0.7l11.5-11.3c0.9-0.9 0.9-2.3 0-3.2zm4.6-22.7v0.3h-4.4v-0.3c0-5.6-4.6-10.1-10.2-10.1-5.6 0-10.2 4.5-10.2 10.1v0.3h-4.4v-0.3c0-8 6.5-14.5 14.6-14.5 8.1 0 14.6 6.5 14.6 14.5z"/></svg>