<svg version="1.2" xmlns="http://www.w3.org/2000/svg" viewBox="0 0 428 498" width="428" height="498"><style>.a{fill:#362f29}</style><path class="a" d="m319.6 8.9c-8.9-2.6-19.5-6.3-31.2-4.4-27.6 4.5-40.5 34.5-24.4 57.4 4.6 6.5 10.6 11.6 17 16.2 19.8 14.4 40.3 27.7 57 46.3 11.2 12.4 26.6 13.6 42.3 7.7 16.4-6.2 24.9-18.7 26.8-35.6 1.8-16.6-4.4-30.9-16.6-42.2-11.5-10.8-24.1-20.2-38-27.7-10.4-5.6-20.8-11.2-32.9-17.7zm-225.6 302.2c-13.4-5.8-32.3-7.5-51.5 1.8-3.9 2-8.4 2.8-12.6 4.2-31.7 10.1-40.2 46.6-15.8 69.1 14.8 13.6 30 26.6 50.9 30.9 31.4 6.6 56.3-6.7 66.1-36.7 8.6-26.2-4.9-54.7-37.1-69.3zm211.3-35c10.6-23 1.2-48-22.4-57.1-13.3-5.2-26.7-10.4-41.3-10.4-5.1 0-9.6-2.1-14.3-3.5-6.1-1.9-12.2-4-18.5-4.8-11.6-1.4-21.5 2.4-28.2 12.3-7 10.4-8.8 22.9-0.3 31.6 15.9 16.4 27.3 36.9 47.4 49.4 14.8 9.3 30.3 11.1 46.7 7.5 14.2-3.2 25.1-11.1 30.9-25zm-205.4-169.3c6.7 3.3 13.8 5 21.4 4.7 13.4-0.4 24.3-8 28.3-19.7 4.2-12.5 0.9-27-10.7-34-24.1-14.5-43.6-34.9-67.1-50-0.8-0.5-1.5-1.2-2.4-1.7-11.2-7-24.3-6.5-32.8 1.3-9.1 8.5-11.2 22.1-2.8 33.5 14 18.9 29.2 36.8 46.7 52.8 5.8 5.3 12 10.1 19.4 13.1zm271.8 296c-4.9-2.2-9.7-5-14.8-6.6-10.4-3.3-20.6-0.1-26.3 8-6.1 8.7-5.2 17.7-0.1 26.3 2.2 3.7 5.4 7 8.6 10 7.8 7.4 15.7 14.7 23.9 21.8 5 4.2 8.7 8.7 11 15.1 5.2 14.5 15.8 21 29.3 19.2 12.2-1.6 22.1-12.4 24-26.1 2.4-17.6-4.5-31.7-17.4-43-11.5-10.1-24.1-18.6-38.2-24.7z"/></svg>