<svg version="1.2" xmlns="http://www.w3.org/2000/svg" viewBox="0 0 3172 3174" width="3172" height="3174"><style>.a{fill:#d5d0c5}</style><path fill-rule="evenodd" class="a" d="m1515.9 1596.7c0-35.7 27.5-64.7 61.4-64.7 33.9 0 61.4 29 61.4 64.7 0 35.7-27.5 64.7-61.4 64.7-33.9 0-61.4-29-61.4-64.7zm8.2 0c0 30.9 23.9 56.1 53.2 56.1 29.3 0 53.2-25.2 53.2-56.1 0-30.9-23.9-56-53.2-56-29.3 0-53.2 25.1-53.2 56zm-56.8 0c0-63.9 49.4-115.8 110-115.8 60.6 0 110 51.9 110 115.8 0 63.9-49.4 115.9-110 115.9-60.6 0-110-52-110-115.9zm8.2 0c0 59.1 45.7 107.2 101.8 107.2 56.1 0 101.7-48.1 101.7-107.2 0-59.1-45.6-107.1-101.7-107.1-56.1 0-101.8 48-101.8 107.1zm-144.2-11.9c1.6-33.2 24.6-59.7 54.9-64.9-19.1-25.4-19-61.4 1.2-87 12.5-16 31-25.1 50.7-25.1 10.5 0 20.7 2.6 30 7.6-0.8-32 19.9-61.4 50.1-69.2 5.2-1.3 10.5-2 15.8-2 25.2 0 48 15.2 58.9 38.6 12.2-18.3 32.2-29.4 54-29.4 8.7 0 17.2 1.8 25.3 5.4 29.1 12.9 45 44.6 39.4 76.3 6.6-2.3 13.5-3.5 20.6-3.5 23.1 0 44.8 13 56.6 33.9 12.5 22.1 12.3 49.6-0.2 71.4 21.3 12 34.8 35.5 34.8 61.1 0 32.6-22.1 60.9-51.7 67.8 20.2 24.3 21.9 60.2 3.1 86.9-12.3 17.5-32.1 27.9-52.8 27.9-9.4 0-18.5-2.1-27-6.1 2.5 32.3-16.4 62.2-46.6 71.8-6.1 2-12.3 3-18.3 3-0.1 0-0.8 0-0.8 0-23.8 0-46-14-57.4-35.5-12 19.9-33.1 32.4-55.8 32.4-7.6 0-15-1.4-22.2-4.1-29.7-11.2-47.2-42.1-43.1-74.1-7.5 3.1-15.6 4.7-23.7 4.7-22.1 0-42.7-11.6-54.9-31-17.5-27.6-14-63.4 7.4-86.5-29.6-8.5-49.9-37.3-48.3-70.4zm57.6 63.5c1.6 0.3 2.9 1.5 3.4 3.2 0.4 1.7-0.1 3.4-1.4 4.5-23.4 19.8-28.5 54.6-11.8 80.9 10.7 17 28.6 27.1 48 27.1 9.5 0 19-2.5 27.4-7.3 1.4-0.9 3.2-0.7 4.5 0.4 1.3 1 1.8 2.8 1.4 4.5-7.6 30.5 8 61.6 36.3 72.4 6.2 2.4 12.8 3.6 19.4 3.6 22.3 0 42.9-13.8 52.3-35.2 0.7-1.5 2.1-2.5 3.7-2.5q0.1 0 0.2 0c1.6 0.1 3.1 1.1 3.7 2.7 8.6 22.7 30 38 53.3 38h0.8c5.2 0 10.6-0.9 15.9-2.6 28.8-9.1 45.9-39.4 39.8-70.4-0.3-1.7 0.3-3.4 1.7-4.4 1.3-1 3.1-1.1 4.5-0.2 9 5.9 19.4 9 30 9 18.4 0 35.2-9 46.2-24.5 17.9-25.4 14.6-60.4-7.8-81.5-1.2-1.1-1.7-2.9-1.2-4.6 0.6-1.6 1.9-2.8 3.6-2.9 29.3-2.8 52.4-29.3 52.4-60.5 0-23.9-13.5-45.6-34.2-55.4-1.2-0.5-2-1.6-2.3-2.8-0.3-1.3-0.1-2.6 0.6-3.7 13.1-19.6 14.1-45.6 2.4-66.1-10.3-18.3-29.3-29.7-49.5-29.7-8.7 0-17 2-24.8 5.9-1.5 0.8-3.2 0.5-4.5-0.6-1.2-1.1-1.7-2.9-1.2-4.6 9.1-30-4.9-61.9-32.7-74.2-7-3.2-14.5-4.8-22.1-4.8-21.5 0-41.1 12.4-51 32.3-0.8 1.6-2.4 2.5-4 2.3-1.6-0.1-3-1.2-3.6-2.9-8-24.4-29.8-40.8-54.3-40.8-4.6 0-9.3 0.6-13.9 1.8-28.7 7.4-47.7 37.3-43.1 68.1 0.2 1.7-0.5 3.4-1.9 4.3-1.4 0.9-3.2 0.9-4.5-0.1-9.6-6.9-20.9-10.6-32.5-10.6-17.3 0-33.4 8-44.4 22-19.2 24.4-17.6 59.6 3.8 81.8 1.2 1.2 1.6 3.1 1 4.7-0.6 1.6-2.1 2.7-3.7 2.7-30 1.3-53.8 26-55.3 57.6-1.5 31.1 20.2 58.8 49.4 63.1zm-49.4 18.7c-36.2-9.6-61.3-44.5-59.3-84.7 1.9-40.2 30.3-72.4 67.3-78-23.8-30.5-24-74.3 0.4-105.4 15-19.2 37.2-30.1 60.8-30.1 13.1 0 25.8 3.4 37.3 9.8-1.7-38.9 23.3-74.9 59.9-84.4 6.2-1.6 12.6-2.4 19-2.4 30.7 0 58.3 18.8 71.2 47.7 14.6-22.8 38.9-36.6 65.5-36.6 10.4 0 20.6 2.2 30.4 6.4 35.3 15.7 54.3 54.6 46.8 93.1 8.4-3.1 17.1-4.7 26.1-4.7 27.7 0 53.7 15.5 67.9 40.6 15.1 26.7 14.7 60.1-0.8 86.3 26 14.3 42.5 42.7 42.5 73.7 0 39.6-27.2 73.8-63.4 81.5 25.1 29.1 27.5 72.9 4.8 105.2-14.9 21-38.5 33.5-63.4 33.5-11.6 0-23.1-2.7-33.6-7.9 3.7 39.2-19.1 75.9-55.7 87.5-7.4 2.4-14.8 3.6-22 3.6h-0.9c-29 0-56-17.4-69.5-43.9-14.2 24.7-39.9 40.2-67.6 40.2-9.1 0-18-1.6-26.6-4.9-36.1-13.7-57.1-51.5-51.4-90.4-9.4 4.1-19.6 6.2-29.8 6.2-26.5 0-51.1-13.9-65.8-37.1-21.2-33.5-16.6-77.1 9.9-104.8zm9.5-6.8c1.6 0.2 2.9 1.4 3.4 3.1 0.4 1.7-0.1 3.4-1.4 4.5-28.7 24.3-34.9 66.9-14.5 99.2 13.1 20.8 35.1 33.2 58.9 33.2 11.7 0 23.3-3.1 33.6-9 1.4-0.8 3.2-0.6 4.5 0.4 1.2 1.1 1.8 2.9 1.4 4.6-9.4 37.4 9.7 75.6 44.5 88.8 7.6 2.9 15.6 4.3 23.7 4.3 27.5 0 52.7-16.9 64.2-43 0.7-1.6 2.2-2.6 3.8-2.6q0 0 0.1 0c1.6 0.1 3.1 1.2 3.7 2.8 10.5 27.8 36.8 46.5 65.4 46.5h0.9c6.4 0 13-1.1 19.6-3.2 35.3-11.2 56.2-48.3 48.8-86.3-0.4-1.7 0.3-3.4 1.6-4.4 1.4-1 3.2-1.1 4.5-0.2 11.1 7.2 23.8 11 36.8 11 22.6 0 43.3-11 56.8-30 21.9-31.2 17.7-74.1-9.6-99.9-1.3-1.2-1.7-3-1.2-4.6 0.5-1.7 1.9-2.8 3.5-3 36.1-3.4 64.3-35.9 64.3-74.1 0-29.3-16.5-56-42-68-1.1-0.5-1.9-1.5-2.3-2.8-0.3-1.2-0.1-2.6 0.7-3.6 16.1-24.1 17.3-55.9 3-81.2-12.7-22.4-36-36.3-60.8-36.3-10.6 0-20.8 2.4-30.4 7.2-1.5 0.8-3.2 0.5-4.5-0.6-1.2-1.1-1.7-3-1.2-4.6 11.2-36.8-6-76-40-91.1-8.7-3.8-17.9-5.7-27.2-5.7-26.4 0-50.3 15.1-62.6 39.6-0.7 1.5-2.3 2.4-3.9 2.3-1.7-0.2-3.1-1.3-3.6-2.9-9.8-30-36.6-50.2-66.6-50.2-5.7 0-11.5 0.8-17 2.2-35.3 9.1-58.6 45.8-53 83.6 0.3 1.7-0.5 3.4-1.8 4.3-1.4 0.9-3.2 0.9-4.6-0.1-11.7-8.5-25.5-13-39.8-13-21.1 0-41 9.9-54.4 27-23.6 30-21.6 73.1 4.7 100.3 1.1 1.2 1.5 3 0.9 4.7-0.6 1.6-2 2.7-3.7 2.7-36.8 1.5-65.9 31.9-67.8 70.7-1.9 38.6 24.2 71.9 60.6 77.4zm-65.5 144.2c-25.2-39.9-19.5-91.9 12.7-124.6-43.5-10.7-73.6-52.3-71.3-100.1 2.3-48 36.4-86.2 80.7-92.3-28.9-35.9-29.5-88.3-0.4-125.3 17.7-22.6 43.9-35.5 71.7-35.5 15.9 0 31.4 4.2 45.1 12.3-2.6-46.4 27-89.7 70.6-101 7.3-1.9 14.9-2.8 22.4-2.8 36.7 0 69.6 22.7 84.5 57.5 17.1-27.6 46.2-44.3 78-44.3 12.3 0 24.3 2.5 35.8 7.6 42 18.6 64.6 65.3 54.9 111.1 10.3-4 21-6.1 32.1-6.1 32.7 0 63.3 18.4 80 47.9 18 31.8 17.3 71.5-1.3 102.5 31 16.7 50.8 50.4 50.8 87.3 0 47.2-32.8 87.9-76.1 96.3 30.5 34.4 33.7 86.7 6.6 125.2-17.5 24.7-45.4 39.5-74.7 39.5-14.2 0-28.2-3.5-40.9-10 5.1 46.7-21.9 90.7-65.6 104.6-8.6 2.8-17.3 4.2-25.9 4.2h-1c-34.7 0-66.9-21-82.6-53.1-16.5 29.9-47.2 48.7-80.4 48.7-10.7 0-21.2-1.9-31.4-5.7-42.9-16.4-67.7-61.7-60.3-108.1-11.5 5.2-23.9 7.9-36.4 7.9-31.3 0-60.3-16.3-77.6-43.7zm6.9-4.8c15.7 25 42.2 39.8 70.7 39.8 14 0 27.9-3.7 40.2-10.7 1.5-0.8 3.2-0.7 4.5 0.4 1.3 1 1.9 2.8 1.5 4.5-11.3 44.9 11.6 90.7 53.3 106.5 9.2 3.5 18.8 5.3 28.6 5.3 32.9 0 63.1-20.3 77-51.7 0.6-1.6 2.1-2.5 3.7-2.5q0 0 0.1 0c1.6 0 3.1 1.1 3.7 2.7 12.7 33.4 44.2 55.8 78.5 55.8h1c7.8 0 15.7-1.3 23.5-3.8 42.4-13.4 67.5-58 58.6-103.6-0.4-1.7 0.3-3.4 1.6-4.4 1.4-1 3.2-1 4.6-0.1 13.2 8.6 28.5 13.1 44.1 13.1 27.1 0 51.9-13.1 68.1-36 26.3-37.3 21.3-88.9-11.6-119.8-1.2-1.2-1.6-3-1.1-4.6 0.5-1.7 1.9-2.8 3.5-3 43.2-4 77.1-43.1 77.1-88.9 0-35.2-19.8-67.2-50.3-81.5-1.2-0.6-2-1.6-2.3-2.9-0.3-1.2-0.1-2.5 0.6-3.6 19.4-28.9 20.8-67.1 3.6-97.4-15.2-26.9-43.1-43.6-72.9-43.6-12.7 0-25 3-36.5 8.7-1.4 0.8-3.2 0.5-4.4-0.6-1.3-1.1-1.8-2.9-1.3-4.6 13.4-44.2-7.2-91.1-48-109.2-10.4-4.6-21.4-7-32.6-7-31.6 0-60.4 18.2-75.1 47.5-0.7 1.6-2.2 2.5-3.9 2.3-1.7-0.1-3.1-1.2-3.6-2.9-11.8-35.9-43.9-60.1-79.9-60.1-6.8 0-13.7 0.9-20.4 2.7-42.3 10.9-70.2 54.9-63.5 100.2 0.2 1.7-0.5 3.4-1.9 4.3-1.4 0.9-3.2 0.9-4.5-0.1-14.1-10.2-30.7-15.6-47.8-15.6-25.4 0-49.2 11.8-65.3 32.4-28.3 35.9-25.8 87.7 5.6 120.3 1.2 1.2 1.6 3.1 1 4.7-0.6 1.6-2.1 2.7-3.7 2.7-44.1 1.9-79.1 38.3-81.4 84.8-2.2 46.4 29 86.3 72.7 92.8 1.6 0.3 2.9 1.5 3.4 3.2 0.4 1.6-0.1 3.4-1.4 4.5-34.4 29.1-41.9 80.3-17.4 119zm-122.9-202.9c0-238 183.8-431.7 409.8-431.7 226 0 409.8 193.7 409.8 431.7 0 238.1-183.8 431.7-409.8 431.7-226 0-409.8-193.6-409.8-431.7zm8.2 0c0 233.3 180.1 423.1 401.6 423.1 221.4 0 401.6-189.8 401.6-423.1 0-233.2-180.2-423-401.6-423-221.5 0-401.6 189.8-401.6 423zm401.6 943.9c-494.1 0-896-423.4-896-943.9 0-520.4 401.9-943.8 896-943.8 494.1 0 896 423.4 896 943.8 0 520.5-401.9 943.9-896 943.9zm0-8.7c101.3 0 198.7-18 289.5-51.1-5.6 0.9-11.2 1.5-16.9 1.5q-0.1 0-0.1 0c-54.3 0-105.2-41.3-126.6-102.7-21.7-62.4 12-204.5 25.7-256.9-17.2 47.3-57.7 81.4-106.9 87.6-5.4 0.8-10.7 1.1-16 1.1-36.4 0-70.5-16-94.9-42.8 28.3 57.3 76.9 165.6 70.3 223.9-8.5 75.1-61 131.9-122.8 133.6 32.4 3.8 65.3 5.8 98.7 5.8zm-438.9-530.3c23.4 27.7 57.1 43.6 92.3 43.6 17.4 0 34.3-3.7 50.1-11.2 1.3-0.6 2.9-0.5 4 0.4 1.2 0.8 1.9 2.3 1.8 3.8-2.9 56.9 29 108.6 79.7 128.8 14 5.6 28.7 8.4 43.6 8.4 37.5 0 73.8-18.5 97-49.5 0.8-1 2-1.6 3.2-1.6q0.3 0 0.5 0c1.4 0.2 2.7 1.2 3.3 2.5 22.1 50.9 73.3 82.1 127 74.9 53.8-6.8 96.6-49 106.5-105 0.3-1.5 1.3-2.7 2.6-3.2 1.4-0.6 2.9-0.3 4 0.6 21.5 17.5 48.4 27.1 75.7 27.1 25.2 0 49.4-8 70.1-23.1q0.3-0.2 0.5-0.3c44.1-32.4 63.1-90.5 47.4-144.7-0.4-1.5-0.1-3.1 0.8-4.2 1-1.1 2.4-1.6 3.9-1.4 7 1.4 14.3 2.1 21.5 2.1 46 0 87.9-26.7 109.3-69.6 25.2-50.5 16.6-111.6-21.5-152-1-1.1-1.4-2.6-1.1-4.1 0.4-1.5 1.4-2.6 2.8-3.1 51.4-17.2 86-67.1 86-124v-2.3c-0.3-57.1-35-106.7-86.5-123.7-1.4-0.4-2.4-1.6-2.8-3.1-0.3-1.4 0.1-3 1.1-4 37.9-40.7 46.3-101.9 20.9-152.1-21.4-42.7-63.2-69.2-109.1-69.2-7.4 0-14.8 0.7-22 2.1-1.5 0.3-2.9-0.2-3.8-1.4-1-1.1-1.3-2.7-0.9-4.1 15.7-54.4-3.7-112.6-48.3-144.9-20.7-14.9-44.8-22.8-69.7-22.8-27.5 0-54.5 9.8-76.1 27.5-1.1 0.9-2.6 1.2-4 0.7-1.3-0.6-2.3-1.8-2.6-3.3-10.2-56-53.1-98-106.9-104.6-4.9-0.6-9.8-0.9-14.6-0.9-48.2 0-92.3 30-112.2 76.3-0.6 1.4-1.8 2.3-3.2 2.5-1.5 0.2-2.9-0.4-3.8-1.6-23.2-30.7-59.3-49-96.6-49-15 0-29.9 2.9-44.1 8.6-50.6 20.3-82.4 72.2-79.2 129 0.1 1.5-0.5 3-1.7 3.8-1.2 0.9-2.7 1-4 0.4-15.8-7.3-32.5-11-49.7-11-35.5 0-69.2 16.1-92.6 44.1-35.8 42.7-41.2 104.2-13.3 152.9 0.7 1.3 0.7 2.9 0.1 4.3-0.7 1.3-2 2.2-3.4 2.3-54 3.8-98.8 43.6-111.6 99-11.1 47.7 4.2 96.7 38.2 128.3 10.3 7.6 16.7 12.8 18 13.7 1 0.8 1.6 2.1 1.6 3.5 0 1.4-0.6 2.6-1.6 3.5-1.2 0.9-7 5.4-16 12.1-35.3 31.6-51.2 81.6-39.8 130.2 13.1 55.4 58.1 95 112 98.5 1.4 0.1 2.7 1 3.4 2.3 0.3 0.6 0.4 1.2 0.4 1.8q0.8 0.6 1.3 1.6c0.6 1.2 0.6 2.6 0 3.8-0.8 1.9-6.5 14.4-15.6 32.6-9.5 40.8 0.1 84.7 27.7 117.4zm-347.7-737.1c12.5 32.5 36.9 59.9 68.7 77.2 20.2 11 54.4 16.6 101.8 16.6 63.5 0 131.9-10.3 151.5-13.4-14.4-30.5-89.4-184.5-148.6-216.8-21.6-11.7-45.4-18-68.7-18-45.5 0-83.8 22.6-102.3 60.3-13.9 28.4-14.7 61.9-2.4 94.1zm-13.9-71.9c-53 116.1-84 245.3-87 381.8 11.9-60.2 69.8-106.1 139.3-106.1 51.4 0 137.3 54.6 190.1 92-20.1-31.6-27.4-71.2-18.4-110.1 9.2-40.1 34.3-72.4 67.4-90.4-30.1 3.6-69.4 7.2-107 7.2-48.7 0-84.2-5.9-105.6-17.6-33.5-18.2-59.3-47.2-72.5-81.6-9.7-25.2-11.7-51.1-6.3-75.2zm265.9 395.4c-42.7-31.9-154.5-111-213.6-111-73.6 0-133.5 53.9-133.5 120.2 0 66.3 59.9 120.2 133.5 120.2 60.1 0 174.6-80.9 215.7-111.5 3.2-2.8 6.5-5.5 10-8-4.3-3.1-8.2-6.4-12.1-9.9zm-352.9 32.1c3.3 141.4 36.6 275.2 93.4 394.5-18-59.9 13-130.7 75.7-165.3 21.5-11.9 57.6-18 107.1-18 38.3 0 78.2 3.7 108.3 7.3-35.8-17.2-63.1-50.8-73-93-9.3-39.3-1.7-79.5 18.9-111.3-52.7 37-139.3 91.8-191.1 91.8-69.5 0-127.4-45.9-139.3-106zm107.7 408.6c18.6 37.3 56.6 59.6 101.7 59.6 23.6 0 47.7-6.4 69.5-18.4 48.2-26.7 106.6-133.9 134.3-189 2.3-9.7 5.7-19.1 10.1-28.3-22.9-3.6-87-12.6-147.1-12.6-48.2 0-82.9 5.7-103.3 16.9-65.2 36.1-94.4 113.1-65.2 171.8zm792.8-1231.3c-9-70.9-59.6-124.4-117.7-124.4-4.4 0-8.7 0.3-13.1 0.9-30.1 4.3-56.6 22.7-74.6 51.8-18.2 29.4-25.6 66.2-20.8 103.5 8.8 69.6 120.2 196 142.5 220.6 15.5-29.9 92.5-182.8 83.7-252.4zm-162.5-122.5c-123.7 22.2-238.8 71.4-339.5 141.7 11.6-4.2 24-6.4 36.7-6.4 44.9 0 88.9 25.5 117.7 68.2 32.1 47.6 38.3 166.7 39.1 231.7 11.3-40.9 40-74.8 79.5-90.7 15.1-6.1 30.9-9.2 47-9.2 25.9 0 51.2 8.5 72.6 23.3-40-46.5-117.4-143-125-203.2-5-39.4 2.9-78.2 22.1-109.3 13-21 30.1-36.6 49.8-46.1zm-405.3 245.9c-3 34.9 6.7 71 27.4 101.8 38.6 57.2 193.1 114.3 223.7 125.2 0.4-34.1 1-207.1-37.6-264.4-27.3-40.4-68.8-64.5-111-64.5-21.8 0-42.3 6.7-59.4 19.4-24.7 18.5-40 47.8-43.1 82.5zm733.8 156.8c27-18.8 162.8-116.2 185.9-182.1 12.3-35.3 12.7-72.9 1.1-105.7-11.5-32.7-33.6-56.7-62.1-67.7-11-4.3-22.5-6.5-34.3-6.5-50.9 0-98.6 38.9-118.9 96.9-23 65.9 19.6 232.4 28.3 265.1zm450 83.2c54.9-51.6 65.5-133.9 23.6-183.3-19.7-23.2-48.2-36-80.2-36-34.1 0-68 14.2-95.3 39.9-49.8 46.8-86.5 214.9-93.4 248.1 32.2-3.3 195.6-21.9 245.3-68.7zm-241.1 804.2c7.4 33.1 46.5 201.2 97.1 247 27.1 24.5 60.4 38 93.6 38q0 0 0.1 0c33 0 62.1-13.3 81.9-37.6 19.8-24.2 27.9-56.6 23-91-5.1-34.6-22.8-67.2-49.9-91.8-50.6-45.7-213.6-61.9-245.8-64.6zm292.8 231.3c79.9-100.5 140.2-218.8 174.5-348.4-21.1 41.1-66.5 68.2-118.8 68.2q0 0 0 0c-13.1 0-26.3-1.7-39.3-5.1-60.5-15.5-152.1-120.2-187.8-163.4 23.6 40.9 25.8 92.4 3.9 136.4-21.4 42.9-62 70.6-107.4 73.9 53.8 5.4 186.4 22.8 233.3 65.1 28.6 25.9 47.3 60.4 52.6 97.1 4 27.5 0.1 53.7-11 76.2zm157.3-469c-19.6-28.5-49.8-49.2-84.8-58.2-7.3-1.9-16-2.8-26-2.8-73.4 0-196.2 50.6-222.9 61.9 21.1 26.2 129.4 157.6 194.8 174.4 12.3 3.2 24.9 4.8 37.3 4.8 59 0 108.6-36.2 120.6-87.9 7.2-31.1 0.4-63.8-19-92.2zm-684.4 649.3c20.2 58 68 97 118.9 97q0 0 0.1 0c11.7 0 23.2-2.1 34.1-6.3 28.5-11.1 50.6-35.1 62.2-67.7 11.7-32.8 11.3-70.4-1-105.8-23-65.9-157.8-163.7-184.6-182.7-9 32.8-52.6 199.6-29.7 265.5zm-364.3-13.6c-8.7 77 35.1 146 97.5 153.9 3.9 0.4 7.8 0.7 11.7 0.7 58.8 0 109.3-54.2 117.4-126.1 7.9-69.8-70.2-221.3-85.9-251-22.1 24.9-132.8 152.8-140.7 222.5zm-313.6-193c-42.6 63.2-35.5 145.8 15.8 184.2 17 12.7 37.5 19.5 59.3 19.5 42.3 0 83.7-24.2 111-64.6 38.6-57.3 38.8-229.7 38.4-263.8-30.7 10.8-186 67.4-224.5 124.7zm27 201.1c107.7 77 232.2 129.7 366.5 150.6-57.9-17.5-96.5-85-88-159.7 6.4-56.6 74.4-146.1 115.6-195.7-19.5 11.4-41.6 17.8-64.2 17.8-15.9 0-31.6-3.1-46.6-9-37.5-15-65.4-46.3-77.8-84.3-1.6 66.1-8.9 177.5-39.7 223.3-28.8 42.7-72.8 68.2-117.7 68.2-17 0-33.4-3.9-48.1-11.2zm1143.2-133.5c-19 13.7-42 21.1-67.2 21.1q-0.1 0-0.1 0c-35.2 0-70.4-14.2-99-40.1-46.9-42.5-82.9-179.4-95.8-234.5 2.4 47.3-18.3 93.2-56.5 121.1q-0.3 0.2-0.5 0.4c-22.1 15.9-47.7 24.3-74.4 24.3-12.3 0-24.6-2-36.4-5.5 49.8 37.3 140.3 111.1 159.6 166.5 13 37.3 13.4 77 1 111.8-9.7 27.2-26.2 48.7-47.6 62.6 121-51 228.9-129.3 316.9-227.7zm241.9-640.9c0-76.3-8.8-150.5-25.3-221.6 12 67.1-35.8 135.6-109.4 154.7-7.8 2-16.9 3-27.3 3q0 0 0 0c-65.8 0-167.6-39.5-210.4-57.4 39.5 24.3 64.7 69 64.9 119v2.4c0 46.6-21.8 88.7-56.7 114.1 46.5-18.7 141-53.3 203.6-53.3 10.6 0 20 1 27.9 3.1 37 9.4 68.8 31.3 89.5 61.6 15.2 22 23.1 46.7 23.3 71.3 13-63.5 19.9-129.3 19.9-196.9zm-162-72.5q0 0 0 0c9.7 0 18.2-1 25.3-2.8 71.5-18.5 117.4-86 102.4-150.3-12.1-51.8-61.4-87.9-119.9-87.9-12.3 0-24.8 1.6-37 4.8-64.8 16.7-171.9 147.1-192.7 173.1 26.4 11.5 149.1 63.1 221.9 63.1zm-390.1-793.2c16.7 13.8 29.9 32.7 38 55.7 12.3 34.8 11.9 74.5-1.1 111.8-21.2 60.6-128.4 142.8-173.7 175.5 16.4-7.4 34.1-11.4 52.1-11.4 26.6 0 52.3 8.4 74.4 24.4 35.3 25.6 55.7 66.5 57 109.6 14.3-61.5 46.5-181.5 89.2-221.6 28.9-27.2 64.7-42.2 100.8-42.2 34.4 0 65.1 13.8 86.3 38.9 45 53 34.1 140.7-24.2 195.6-43.2 40.5-162.7 60.2-221.8 67.6 42.1 5.7 79.2 32.4 99.4 72.6 21 41.6 20.2 90.2 0 130.2 37.5-45.1 124.4-143.1 182.6-158.2 12.8-3.3 25.9-5 38.9-5 59.2 0 109.6 35.2 125.6 86.5-70.8-286.2-267.4-519.3-523.5-630zm-335.7-69.5c-29.4 0-58.5 1.6-87.1 4.5 54.5 9.5 99.6 62.3 108.2 130.3 7.6 60.1-43.4 174.4-70.9 230.4 24.5-27.9 59.4-44.7 96.6-44.7 5.1 0 10.4 0.4 15.5 1 46.5 5.7 85.3 36.2 104.2 79.3-14-55.1-44.8-191.9-23.5-252.8 21.4-61.3 72.3-102.5 126.6-102.5 1.5 0 2.9 0.1 4.4 0.2-86.3-29.6-178.4-45.7-274-45.7zm-776.2 481.8c22.3-26.3 56.4-41.8 94.3-41.8 24.6 0 49.7 6.5 72.5 18.9 46.8 25.5 100.9 119.5 131.1 178-5.1-39 5.8-79.3 31.8-110.3 25-29.9 61-47 98.8-47 0.5 0 1.1 0 1.7 0.1-58.6-23.3-157.1-67.5-188.1-113.6-21.9-32.4-32.1-70.6-28.9-107.6 2.3-25.3 10.7-47.9 24.3-66.1-96.8 78.1-177.9 176.6-237.5 289.4zm249.4 1205.7c-42.4-44.6-45.4-122.9-4.3-184 30.2-44.9 124.4-87.6 183.8-111.1-37.3-0.2-72.9-17.1-97.7-46.5-24-28.4-35.2-64.6-33.1-100.6-30.7 58.7-81.9 146-126.7 170.7-23 12.8-48.3 19.5-73.3 19.5-40.6 0-75.8-17.1-97.9-46.5 62 117.3 147.3 219.1 249.2 298.5zm-211-824.3c46 0 137.5 66.4 141.4 69.2 1.1 0.9 1.8 2.2 1.8 3.6 0 1.5-0.7 2.8-1.8 3.6-3.9 2.8-95.4 68.6-141.4 68.6-47.5 0-86.1-32.5-86.1-72.5 0-40 38.6-72.5 86.1-72.5zm-77.9 72.5c0 35.2 34.9 63.8 77.9 63.8 37.6 0 111.7-49.6 131.7-63.5-20-14-94.1-64.2-131.7-64.2-43 0-77.9 28.7-77.9 63.9zm83.1-340.7c-8.7-20.1-8.8-40.8-0.3-58.2 10.8-22 33.8-35.1 61.6-35.1 15.6 0 31.7 4.2 46.5 12.3 40.9 22.2 93.3 125.5 95.5 129.9 0.6 1.3 0.6 2.8 0 4-0.6 1.3-1.8 2.2-3.1 2.3-0.4 0.1-38.4 5-77.7 5-36.5 0-62.7-4.1-77.9-12.4-20.3-11-36.1-28-44.6-47.8zm7.5-3.6c7.7 18.1 22.3 33.6 40.9 43.7 13.8 7.5 39.4 11.5 74.1 11.5 29.6 0 58.4-2.9 70.6-4.2-11.6-22.1-55.7-102.5-89.1-120.7-13.6-7.4-28.4-11.3-42.7-11.3-24.7 0-44.9 11.3-54.3 30.4-7.3 15-7.2 32.9 0.5 50.6zm240.6-249.1c-13.2-19.6-19.9-42.3-18.9-64.1 1.1-22.1 10-40.5 25.2-51.8 9.7-7.3 21.5-11.1 34.1-11.1 26.4 0 53.9 16.5 71.8 43.1 26.7 39.5 28.2 156.6 28.3 161.6 0 1.4-0.6 2.7-1.7 3.5-0.7 0.6-1.6 0.8-2.4 0.8q-0.7 0-1.4-0.2c-4.4-1.7-108.4-42.2-135-81.8zm6.7-5c21.8 32.3 103.1 67.2 125.4 76.4-0.7-25.3-4.8-118-26.6-150.3-16.4-24.3-41.3-39.5-65.1-39.5-10.9 0-21 3.3-29.4 9.6-13 9.7-20.7 25.8-21.7 45.2-0.9 19.8 5.2 40.6 17.4 58.6zm447.3-184.3c6.1 48.1-44.4 152.4-46.5 156.8-0.6 1.3-1.8 2.2-3.2 2.4q-0.2 0-0.5 0c-1.1 0-2.3-0.5-3-1.4-3.2-3.7-77.2-90.6-83.3-138.6-3-23.9 1.1-47.3 11.7-66 10.7-19 26.7-30.9 45.2-33.5 38.1-5.3 73.3 31 79.6 80.3zm-8.2 1.2c-5.3-41.8-32.8-73.4-64-73.4q-3.2 0-6.4 0.5c-15.8 2.2-29.7 12.6-39.2 29.3-9.6 17.1-13.3 38.5-10.5 60.4 4.9 39.3 61.5 110.2 77.2 129.2 10.5-22.7 47.9-106.8 42.9-146zm357.5 73.6c-15.9 45.5-106.7 113-110.6 115.8-0.7 0.6-1.5 0.8-2.3 0.8q-0.7 0-1.5-0.2c-1.2-0.5-2.2-1.7-2.5-3-1.2-4.8-28.2-118.1-12.3-163.6 13.1-37.5 43.9-63.7 74.8-63.7 6.8 0 13.3 1.3 19.6 3.7 17.4 6.8 30.6 22.1 37.1 43.1 6.4 20.7 5.6 44.5-2.3 67.1zm-5.5-64.4c-5.7-18.5-17.1-31.8-32.2-37.7-5.3-2-10.9-3.1-16.7-3.1-27.5 0-55.1 23.9-67 58-13 37.2 5.6 127.7 11 152.2 19.4-14.9 89.7-70.9 102.7-108 7.2-20.8 8-42.6 2.2-61.4zm296.3 193.1c25.2 29.8 17 81.2-18.5 114.5-34.3 32.2-144.6 46.9-149.3 47.5q-0.2 0-0.5 0c-1.1 0-2.3-0.5-3-1.5-1-1-1.3-2.5-1-3.9 1.2-4.8 27.8-118.1 62.2-150.4 18.2-17.1 41.2-27 63.1-27 19 0 35.6 7.4 47 20.8zm-6.2 5.7c-9.7-11.5-24.2-17.8-40.8-17.8-19.9 0-40.9 9.1-57.6 24.8-28.1 26.4-52 115.4-58.2 139.8 23.8-3.6 110.8-18.1 138.9-44.5 32-30.1 40-76 17.7-102.3zm126.9 454c-5.3 1.3-11.6 2-18.8 2q0 0 0 0c-49.9 0-130.9-32.3-134.3-33.7-1.2-0.5-2.2-1.7-2.5-3-0.3-1.4 0-2.9 0.9-4 3.2-3.6 77.1-90.6 121.8-102.2 8.4-2.1 16.9-3.2 25.4-3.2 37.4 0 67.4 20.9 74.6 52 9.1 38.8-21 80.1-67.1 92.1zm-2-8.4c41.7-10.8 69.1-47.4 61.2-81.6-6.4-27.2-33.2-45.5-66.7-45.5-7.8 0-15.7 1.1-23.4 3.1-36.6 9.4-97.3 76.3-113.5 94.8 19.5 7.4 84.7 31 125.6 31q0 0 0 0c6.6 0 12.2-0.6 16.8-1.8zm72.1 335.6c-7.2 31.2-37.4 52.1-75.1 52.1-8.5 0-17.1-1.1-25.6-3.3-45.1-11.6-119.8-99.2-123-102.9-0.9-1.1-1.2-2.6-0.9-3.9 0.3-1.4 1.3-2.6 2.5-3.1 3.5-1.3 84.5-33.1 134.8-33.1 7.4 0 13.9 0.7 19.2 2.1 46.5 12 77.1 53.3 68.1 92.1zm-70-83.7c-4.8-1.2-10.5-1.8-17.3-1.8-41.3 0-106.5 23.1-126.1 30.4 16.4 18.6 77.8 86 114.6 95.5 7.9 2 15.9 3 23.7 3 33.8 0 60.8-18.3 67.1-45.4 7.9-34.2-19.9-70.9-62-81.7zm-288.2 297.9c-0.3-1.4 0-2.8 0.9-3.9 0.9-1.1 2.2-1.7 3.5-1.5 4.7 0.5 114.8 13.4 149.7 45 20 18.1 32.5 42.5 34.3 66.9 1.2 18-3.6 34.8-13.8 47.2-11.4 14-28.4 21.7-48 21.7-21.4 0-44.1-9.4-62.2-25.8-34.9-31.6-63.2-144.8-64.4-149.6zm9.6 4c6.4 24.3 31.7 113.3 60.2 139.1 16.6 15 37.3 23.6 56.8 23.6 17.1 0 32-6.6 41.8-18.6 8.8-10.9 12.9-25 11.8-41-1.7-22.1-13.1-44.3-31.4-60.9-28.5-25.8-115.5-39-139.2-42.2zm-259.2 326.9c-15.9-45.5 11.8-158.9 13-163.7 0.4-1.4 1.3-2.5 2.6-3 1.3-0.5 2.7-0.3 3.8 0.6 3.8 2.8 94 70.7 109.8 116.2 9.1 26 8.7 53.7-1.1 75.9-7.2 16.4-19.2 28.6-33.9 34.2-6.2 2.4-12.7 3.6-19.4 3.6-31 0-61.7-26.2-74.8-63.8zm7.7-3c11.9 34.2 39.5 58.1 67.1 58.1 5.7 0 11.3-1 16.6-3.1 12.8-4.9 22.9-15.1 29.3-29.6 8.8-20.2 9.1-45.4 0.8-69.3-13-37.2-82.7-93.4-102-108.4-5.6 24.5-24.8 115.1-11.8 152.3zm-352.3 76.7c-10.8-18.6-15.2-42-12.5-65.8 5.4-48.2 78.9-136.1 82-139.8 0.9-1 2.2-1.6 3.6-1.4 1.4 0.2 2.5 1 3.2 2.3 2.2 4.4 53.4 107.9 47.9 156-5.3 46.7-36.2 81.9-71.9 81.9q0 0 0 0-3.3 0-6.7-0.4c-18.4-2.3-34.6-14-45.6-32.8zm7-4.6c9.7 16.6 23.7 26.8 39.6 28.8q2.9 0.4 5.7 0.4 0 0 0 0c31 0 59-32.7 63.7-74.3 4.5-39.3-33.6-122.7-44.3-145.3-15.5 19.2-71.6 90.9-76 130.2-2.5 21.9 1.5 43.3 11.3 60.2zm-355.3-166.3c-1-21.8 5.7-44.5 18.9-64.1 26.6-39.5 131-79.7 135.4-81.4 1.3-0.5 2.7-0.3 3.8 0.5 1.1 0.9 1.8 2.2 1.8 3.6-0.1 5-2.1 121.7-28.8 161.2-17.9 26.6-45.4 43.1-71.8 43.1-12.6 0-24.4-3.8-34.2-11.1-15.1-11.3-24-29.7-25.1-51.8zm8.2-0.5c1 19.4 8.7 35.5 21.7 45.2 8.3 6.3 18.5 9.6 29.4 9.6 23.8 0 48.7-15.1 65.1-39.5 21.8-32.3 26.2-124.7 27.1-149.9-22.4 9-104.2 43.7-125.9 76-12.2 18-18.3 38.9-17.4 58.6zm-236.6-251.8c-8.6-17.3-8.7-38-0.1-58.2 8.4-19.9 24.2-37 44.4-48.2 15.2-8.4 41.8-12.7 79-12.7 39.1 0 76.4 4.9 76.8 4.9 1.3 0.2 2.5 1 3.1 2.3 0.6 1.3 0.6 2.8 0 4-2.2 4.4-54.2 107.5-95 130-14.9 8.2-31.2 12.6-47 12.6q0 0 0 0c-27.5 0-50.4-13-61.2-34.7zm7.3-4.1c9.4 18.9 29.5 30.1 53.9 30.1q0 0 0 0c14.5 0 29.4-4 43.2-11.6 33.3-18.4 77.1-98.6 88.6-120.7-12-1.3-40.4-4.1-69.7-4.1-35.3 0-61.3 4.1-75.2 11.7-18.6 10.3-33 25.9-40.7 44-7.5 17.7-7.6 35.7-0.1 50.6zm262.2-399.7c0-266.7 206-483.7 459.2-483.7 253.2 0 459.2 217 459.2 483.7 0 266.7-206 483.7-459.2 483.7-253.2 0-459.2-217-459.2-483.7zm8.2 0c0 262 202.3 475.1 451 475.1 248.6 0 450.9-213.1 450.9-475.1 0-261.9-202.3-475-450.9-475-248.7 0-451 213.1-451 475zm1689.4 411.8c82.8 79.8 130 192.5 130 310.7 0 232.2-179.3 421-399.7 421-66.1 0-131.4-17.3-189.4-50.3 3 21.1 4.5 42.3 4.5 63 0 232.2-179.3 421.1-399.7 421.1-186.5 0-322.6-85.4-375.4-234.8-52.7 149.4-188.7 234.8-375 234.8-220.4 0-399.7-188.9-399.7-421.1 0-21 1.5-42.5 4.6-63.9-58.4 33.5-124.3 51.2-191 51.2-220.4 0-399.8-188.8-399.8-421 0-120.8 49-235 134.7-315.1-201.4-22.2-357.8-204.2-357.8-418.6 0-203.7 142-380.6 331.5-415-69.9-78.4-108.4-180.4-108.4-288.2 0-232.2 179.4-421.1 399.8-421.1 68.1 0 135.1 18.4 194.4 53.2-5.3-27.8-8-56-8-84.1 0-232.2 179.3-421.1 399.7-421.1 154.4 0 295.1 94.2 361.2 240.7 64.2-152.1 206.6-249.9 365.2-249.9 220.5 0 399.8 188.9 399.8 421.1 0 28.5-2.8 57.2-8.4 85.5 59.1-34.4 125.7-52.6 193.5-52.6 220.4 0 399.7 188.9 399.7 421.1 0 111.6-40.8 216.2-115.1 295.5 205.5 18.6 365.1 201 365.1 419.4 0 213.7-155.7 395.6-356.3 418.5zm-1415.5 773.8c-15.1 31.7-4.4 71.2 24.4 89.8 10.4 6.8 22.3 10.4 34.5 10.4 20.7 0 40.4-10.4 52.7-27.8 1.1-1.4 2.8-2 4.4-1.6 1.6 0.5 2.8 1.9 3 3.7 4.1 34.6 32.1 60.8 65.2 60.8l2.3-0.1q0 0 0.1 0 0.4 0 0.7 0.1c33.9-1.7 60.8-29.5 62.8-65.2 0.1-1.8 1.2-3.3 2.8-3.9 1.5-0.5 3.3-0.1 4.4 1.3 12.5 15.4 30.7 24.2 50 24.2 13.7 0 26.9-4.5 38.1-12.9q0.3-0.2 0.6-0.3c27.5-21 35.4-60.1 18.3-91.1-0.9-1.5-0.7-3.4 0.3-4.8 1-1.4 2.8-2 4.4-1.5 5.9 1.8 11.9 2.7 18 2.7 27 0 51.7-17.8 61.4-44.4 12.4-33.7-1.5-71.2-32.3-87.2-1.5-0.8-2.4-2.5-2.3-4.2 0.2-1.8 1.3-3.3 2.9-3.8 24.3-8.1 41.2-30.4 45-55.8-18.7 6.1-37.7 11.5-56.8 16.4 0.7 8 1.3 16.1 1.3 24.3 0 133-102.8 241.3-229.2 241.3-126.3 0-229.1-108.2-229-241.3 0-8.2 0.5-16.3 1.2-24.3q-26-6.7-51.5-14.8c-7 11-11.4 24-11.5 38.2q0 0.4 0.1 0.9c0 23.2 10.8 44.7 29.1 57.6 1.8 1.2 2.3 3.8 1.2 5.8-11.4 19.9-12.8 44.3-3.5 65.3 10.7 24.4 34.2 40.2 59.8 40.2 7.5 0 15-1.4 22.1-4.1 1.5-0.6 3.3-0.1 4.4 1.3 1.2 1.3 1.4 3.2 0.6 4.8zm-222.7-209.3c1.1-1.3 2.9-1.8 4.5-1.2 7 2.6 14.3 3.9 21.8 3.9 17.6 0 34-7.5 46.1-20.1q-27.8-10.6-54.9-22.9c-3.9 6.9-8.1 13.7-12.8 20.3-43.7 61.3-110.6 96.5-183.4 96.5-49.9 0-97.4-16.7-137.4-48.3-101.1-80-121.5-231.6-45.7-338 4.8-6.6 9.9-12.9 15.2-19-11.2-14.3-22.1-29-32.5-44-12.4 4.3-23.4 12.1-31.6 23.3q-0.2 0.4-0.4 0.7c-13.2 18.6-16.8 42.7-9.6 64.5 0.8 2.2-0.3 4.6-2.3 5.4-20.5 8.7-35.4 27.4-40 50-7.1 34.8 12.6 70.3 44.9 80.7 1.6 0.5 2.7 2.1 2.8 3.8 0.2 1.8-0.7 3.5-2.2 4.2-30.2 15.9-44.1 54.2-31.8 87.3 10 26.8 34 44.1 61.3 44.1 6.2 0 12.4-1 18.4-2.8 1.7-0.5 3.4 0.1 4.4 1.4 1.1 1.4 1.2 3.4 0.4 4.9-16.9 30.8-8.4 70.9 19.3 91.2q0.3 0.3 0.6 0.6c11 7.9 23.8 12.1 37.1 12.1 19.4 0 37.8-9 50.3-24.6 1.1-1.3 2.8-1.8 4.4-1.3 1.6 0.6 2.7 2.1 2.8 3.9 2.2 35.4 30.3 63.9 64 64.8q0.4 0 0.7 0l1.1 0.1c33.4 0 61.5-26.4 65.4-61.3 0.2-1.8 1.4-3.2 3-3.7 1.6-0.4 3.3 0.2 4.4 1.6 12.3 17.2 31.9 27.5 52.5 27.5 12.2 0 24.3-3.7 34.8-10.6 29.1-19.1 39.4-57.9 23.8-90.2-0.7-1.6-0.5-3.5 0.6-4.8zm-268.3-235.8c-18 25.2-25.5 56.3-21.3 87.6 4.2 31.2 19.8 58.9 43.7 77.8 19.6 15.5 42.8 23.7 67.3 23.7 35.6 0 68.3-17.2 89.7-47.2 0.6-0.8 1-1.6 1.5-2.4-64.8-40-124.9-87.6-179-141.8-0.6 0.8-1.3 1.5-1.9 2.3zm-4-8.4c-24.2-24.7-47.3-50.7-69-77.9-4.8 5.6-9.5 11.4-13.9 17.5-73.1 102.6-53.4 248.8 44 325.8 38.6 30.5 84.4 46.6 132.5 46.6 70.2 0 134.7-33.9 176.8-93 4.3-6 8.2-12.3 11.8-18.6-30.9-14.4-61-30.4-90.2-48.1-0.6 1.1-1.3 2.1-2 3.2-22.9 32.2-58.1 50.7-96.3 50.7-26.3 0-51.2-8.8-72.2-25.5-25.8-20.3-42.4-50-46.9-83.5-4.6-33.5 3.6-66.9 22.9-94 0.8-1.1 1.6-2.1 2.5-3.2zm672.1 278.2c528.8 0 959.1-453.2 959.1-1010.3 0-557.1-430.3-1010.3-959.1-1010.3-528.9 0-959.1 453.2-959.1 1010.3 0 557.1 430.2 1010.3 959.1 1010.3zm-1108.9-548.9c-17.8 30.2-10.5 70.6 16.5 91.9q0.3 0.3 0.6 0.6c11.4 8.7 24.8 13.4 38.9 13.4 18.6 0 36.4-8.3 48.9-22.8 0.8-1 1.9-1.5 3-1.5q0.8 0 1.5 0.3c1.5 0.6 2.6 2.2 2.7 3.9 0.9 36.1 27.5 64.9 61.8 67.1 34 2.1 64.1-23.9 69.1-58.9 0.2-1.8 1.5-3.2 3.1-3.6 1.7-0.4 3.3 0.3 4.3 1.7 12.3 18.4 32.4 29.4 53.8 29.4 3.7 0 7.3-0.5 10.9-1.2-11.2-17-22.1-34.4-32.4-52.2-7.1 3.3-14.3 6.3-21.8 8.8-22.7 7.7-46.2 11.5-69.8 11.5-100 0-187.7-67.5-218.2-168-38.4-126.8 28.3-262.9 148.7-303.3 7.4-2.5 14.9-4.4 22.4-6q-1.8-27.9-2.2-56.1c-6.1-2-12.4-3.2-19-3.2-6.5 0-13 1-19.2 3q-0.4 0.3-0.8 0.4c-20.9 7-37.1 24.5-43.2 46.7-0.6 2.2-2.8 3.5-4.9 3-21.2-5.3-44.1 0.8-60.1 16.4-24.9 24-28.3 64.9-7.8 93.1 1 1.4 1.1 3.3 0.2 4.9-0.8 1.5-2.4 2.3-4.2 2-3.3-0.5-6.7-0.8-10.1-0.8-30.2 0-56.4 21.6-63.7 52.6-8.2 34.5 10.4 70.7 42.3 82.3 1.6 0.5 2.6 2.1 2.7 3.8 0.1 1.8-0.8 3.5-2.4 4.2-30.6 14.8-45.7 52.7-34.4 86.1q0.1 0.5 0.2 0.9c9.6 27.2 34.3 45.3 61.8 45.3 5.4 0 10.9-0.7 16.3-2.1 1.6-0.5 3.3 0.2 4.3 1.6 1 1.4 1.1 3.3 0.2 4.8zm141.6-467.1c0.1-20.9 0.9-41.6 2.2-62.2-7.6-1.6-15.1-3.5-22.5-5.9-120.6-39.9-187.8-175.6-150-302.6 30.2-101.1 118-169.1 218.5-169.1 23.3 0 46.4 3.8 68.8 11.2 7.5 2.5 14.8 5.5 21.9 8.7q13.7-23.9 28.6-46.9c-7.8-10.7-18.4-19.2-31.3-23.6q-0.3-0.1-0.7-0.2c-20.8-6.8-44.1-2.2-60.9 12-1.7 1.4-4.2 1.2-5.7-0.5-14.4-17.3-36.3-26.1-58.1-23.1-33.4 4.6-58.6 36-57.2 71.5 0 1.7-0.9 3.4-2.5 4.1-1.5 0.7-3.3 0.4-4.5-0.9-12.3-12.5-28.5-19.4-45.7-19.4-15.7 0-31 6-43 17-25.6 23.3-30.1 64.1-10.4 92.9 1 1.4 1.1 3.3 0.2 4.8-0.9 1.5-2.6 2.3-4.3 2-3.9-0.8-7.9-1.2-11.8-1.2-29.5 0-55.5 20.9-63.4 50.8q-0.1 0.4-0.3 0.8c-8.7 34.6 8.5 70 40.3 82.6 1.5 0.6 2.6 2.2 2.6 4 0.1 1.8-0.9 3.4-2.5 4.1-31 13.9-47.1 51.3-36.6 85.1q0.1 0.4 0.1 0.8c9.1 28.3 34.1 47.3 62.4 47.3 4.9 0 9.8-0.6 14.6-1.8 1.6-0.4 3.3 0.4 4.3 1.8 0.9 1.5 0.9 3.4 0 4.9-18.9 30.1-12.9 69.8 14 92.3 11.7 9.9 25.9 15.1 40.9 15.1 18 0 35.4-7.8 47.7-21.4 0.8-0.9 1.9-1.4 3-1.4q0.8 0 1.5 0.4c1.6 0.6 2.6 2.2 2.6 4 0 26.9 15.2 50.6 37.2 62zm84.3-410.2c-0.8-0.3-1.6-0.6-2.4-0.9-10.9-3.6-22.3-5.4-33.6-5.4-49.2 0-92.2 33.2-107 82.7-9 30.2-6.3 62.1 7.6 90.1 13.8 28 37.2 48.6 65.8 58 0.8 0.3 1.6 0.5 2.3 0.7 14.2-78.6 37-154 67.3-225.2zm50.4-102.2c-6.6-2.9-13.3-5.6-20.2-7.9-21.6-7.2-43.9-10.8-66.3-10.8-96.9 0-181.6 65.5-210.6 163-36.5 122.4 28.3 253.3 144.5 291.7 6.8 2.3 13.7 4 20.6 5.5 2.5-35.7 6.8-70.9 12.8-105.5-1.1-0.4-2.2-0.6-3.3-1-30.6-10.1-55.7-32.2-70.6-62.3-14.9-30-17.8-64.3-8.1-96.6 15.8-53.2 61.9-88.9 114.8-88.9 12.2 0 24.3 2 36.1 5.9 1.1 0.3 2.2 0.8 3.3 1.2 14.1-32.3 29.8-63.8 47-94.3zm-116.9 713.3c-0.7 0.2-1.5 0.4-2.3 0.7-28.5 9.6-51.8 30.3-65.5 58.3-13.8 28.1-16.3 60.1-7.2 90.1 14.9 49.2 57.8 82.3 106.8 82.3 11.5 0 23-1.9 34.1-5.6 0.8-0.3 1.6-0.6 2.3-1-30.6-70.9-53.6-146.3-68.2-224.8zm-1.5-8.5c-6.1-34.6-10.6-69.8-13.3-105.5-6.9 1.5-13.7 3.3-20.5 5.6-116.1 38.9-180.4 170.1-143.4 292.3 29.4 97 114 162.1 210.4 162.1 22.8 0 45.4-3.8 67.2-11.1 7-2.3 13.6-5.1 20.2-8.1-17.3-30.3-33.1-61.8-47.4-94.1-1.1 0.5-2.2 0.9-3.3 1.3-11.9 4-24.2 6.1-36.6 6.1-52.6 0-98.7-35.5-114.7-88.3-9.8-32.3-7-66.7 7.7-96.8 14.8-30.1 39.8-52.3 70.4-62.6 1.1-0.4 2.2-0.6 3.3-0.9zm177.1-864.6c-15.1 21.8-16 50.6-4.4 73.5q17.6-25 36.5-48.8c-5.3-6.1-10.4-12.5-15.1-19.2-75-107-53.5-258.4 48.1-337.6 39.7-30.9 86.7-47.3 136-47.3 72.4 0 141.4 36.7 184.4 98 4.6 6.5 8.8 13.4 12.7 20.3 16.3-7.2 32.8-13.9 49.4-20.3-0.4-13.3-4.2-26.7-12-38.1q-0.3-0.3-0.5-0.6c-13-18.5-34.1-29-55.9-28.1-2.3 0.1-4.1-1.6-4.3-3.9-2-23.1-14.7-43.6-34-54.7-9.7-5.5-20.6-8.5-31.5-8.5-22.1 0-42.6 11.5-54.8 30.7-0.9 1.5-2.6 2.2-4.2 1.9-1.7-0.4-3-1.8-3.2-3.5-5.8-35.2-36.1-60.1-70.3-57.1-33.7 3-60.2 33.2-60.4 68.7 0 1.8-1 3.3-2.6 4-1.5 0.6-3.3 0.2-4.5-1-12.3-13.8-29.7-21.6-47.7-21.6-15 0-29.1 5.2-40.8 15q-0.4 0.2-0.8 0.5c-26.2 22.5-32.1 61.7-13.6 91.7 1 1.4 0.9 3.4 0 4.8-1 1.5-2.7 2.2-4.3 1.8-4.8-1.2-9.8-1.8-14.7-1.8-28.6 0-53.7 19.2-62.6 47.8q-0.1 0.4-0.3 0.8c-10.2 34.1 5.5 70.3 36.7 84.5 1.6 0.7 2.6 2.3 2.5 4.1 0 1.8-1.1 3.3-2.6 4-32.2 12.5-49.5 48.4-40.4 83.2 7.8 30.1 33.9 51.1 63.5 51.1 3.9 0 7.8-0.4 11.7-1.2 1.6-0.3 3.3 0.5 4.2 2 0.9 1.5 0.8 3.4-0.2 4.9zm292.9-205.9c-0.5-0.8-0.9-1.6-1.5-2.3-21-30-54.7-47.9-90.2-47.9-24.1 0-47.2 8-66.6 23.1-24.1 18.8-39.8 46.3-44.3 77.5-4.4 31.2 3 62.4 20.8 87.7 0.6 0.9 1.2 1.6 1.9 2.4 54.4-53.8 114.8-101 179.9-140.5zm97.7-51.7c-3.6-6.4-7.5-12.6-11.7-18.7-41.5-59.1-108-94.4-177.8-94.4-47.5 0-92.9 15.8-131.2 45.6-97.9 76.3-118.6 222.3-46.2 325.4 4.3 6.2 8.9 12 13.8 17.7 21.9-27.1 45-53 69.4-77.5-0.8-1-1.7-2-2.4-3.1-19.2-27.2-27.1-60.7-22.3-94.2 4.8-33.5 21.6-63 47.5-83.1 20.9-16.3 45.6-24.9 71.5-24.9 38.1 0 74.3 19.2 96.9 51.4 0.7 1.1 1.3 2.2 2 3.2 29.3-17.4 59.5-33.2 90.5-47.4zm146.5-98c-0.2 1.7-1.3 3.3-2.9 3.8-24.3 8-41.2 30.4-45 55.8 18.7-6.1 37.7-11.5 56.8-16.4-0.7-8-1.3-16.1-1.3-24.3 0-133.1 102.8-241.4 229.2-241.4 126.3 0 229.1 108.3 229.1 241.4 0 8.2-0.5 16.2-1.3 24.2q26 6.7 51.4 14.8c7.2-11 11.5-24.2 11.6-38.2q0-0.4 0-0.8c0-23.2-10.9-44.7-29.2-57.6-1.8-1.3-2.3-3.9-1.2-5.9 11.4-19.8 12.7-44.2 3.5-65.2-10.7-24.5-34.2-40.2-59.8-40.2-7.5 0-14.9 1.3-22.1 4-1.5 0.6-3.3 0.1-4.4-1.2-1.1-1.3-1.4-3.2-0.6-4.8 15.3-32.2 4.8-70.9-24.4-89.9-10.4-6.8-22.3-10.3-34.5-10.3-20.7 0-40.4 10.3-52.7 27.7-1 1.5-2.8 2.1-4.4 1.6-1.6-0.4-2.8-1.9-3-3.6-4.1-34.7-32.1-60.8-65.2-60.8h-2.3c-0.2 0-0.5 0-0.8 0-33.9 1.6-60.8 29.5-62.8 65.2-0.1 1.8-1.2 3.3-2.8 3.8-1.5 0.6-3.3 0.1-4.4-1.2-12.5-15.4-30.7-24.2-50-24.2-13.7 0-26.9 4.4-38.1 12.8q-0.3 0.2-0.6 0.4c-27.5 21-35.4 60-18.3 91 0.9 1.5 0.7 3.4-0.3 4.8-1 1.4-2.8 2-4.4 1.5-5.9-1.7-11.9-2.6-18-2.6-27 0-51.7 17.8-61.4 44.3-12.4 33.8 1.5 71.3 32.3 87.3 1.5 0.7 2.4 2.4 2.3 4.2zm236.8 14.5c37.9 0 75.2 2.4 112 6.9 0-0.8 0.1-1.7 0.1-2.5 0-65.2-50.3-118.2-112.1-118.2-61.9 0-112.2 53-112.2 118.2 0 0.8 0.1 1.7 0.1 2.5 36.8-4.5 74.2-6.9 112.1-6.9zm120.3 4.4c0 1.2-0.1 2.3-0.1 3.5 33.7 4.4 66.9 10.7 99.5 18.7 0.7-7.3 1.1-14.7 1.1-22.2 0-128.3-99.1-232.7-220.8-232.7-121.8 0-220.9 104.4-220.9 232.7 0 7.5 0.4 14.9 1.1 22.2 32.6-8 65.8-14.3 99.5-18.7 0-1.2-0.1-2.3-0.1-3.5 0-70 54-126.8 120.4-126.8 66.3 0 120.3 56.8 120.3 126.8zm270.9 34.6c-1.1 1.3-2.8 1.8-4.4 1.2-6.9-2.5-14-3.7-21.2-3.7-17.9 0-34.5 7.7-46.6 20.5 18.6 6.9 37 14.3 55.1 22.4 3.9-7 8.1-13.8 12.7-20.4 43-61.5 112-98.2 184.6-98.2 49.2 0 96.1 16.2 135.8 47 49.2 38.2 81.4 94.4 90.6 158.1 9.2 63.8-5.8 127.5-42.1 179.4-4.7 6.7-9.7 13-15 19.1 11.3 14.2 22.3 28.7 32.9 43.6 12.3-4.4 23.4-12.4 31.4-23.5q0.1-0.3 0.4-0.7c13-18.7 16.4-42.8 9-64.5-0.8-2.2 0.2-4.6 2.3-5.5 20.4-8.9 35.2-27.7 39.5-50.4 6.8-34.8-13.2-70.1-45.5-80.2-1.6-0.6-2.8-2-2.9-3.8-0.2-1.8 0.7-3.5 2.2-4.3 30.5-16.3 43.8-54 31-87.5-10.1-26.4-34.1-43.5-61.1-43.5-6.4 0-12.8 1-19 3-1.6 0.5-3.3-0.1-4.4-1.4-1-1.4-1.2-3.3-0.4-4.9 16.6-31 7.8-71-20-91.1q-0.4-0.2-0.7-0.5c-10.8-7.7-23.5-11.7-36.5-11.7-19.8 0-38.2 9.1-50.7 25-1.1 1.3-2.9 1.9-4.5 1.3-1.6-0.5-2.7-2-2.8-3.8-2.5-35.4-30.8-63.6-64.6-64.2q-0.3 0-0.6 0h-0.5c-33.8 0-61.9 26.6-65.5 61.8-0.2 1.8-1.4 3.3-3 3.7-1.6 0.5-3.3-0.1-4.4-1.5-12.3-16.9-31.8-26.9-52.1-26.9-12.5 0-24.7 3.7-35.3 10.8-28.9 19.5-38.9 58.3-23.1 90.4 0.8 1.6 0.5 3.5-0.6 4.9zm270.4 233.2c17.7-25.4 25-56.6 20.5-87.8-4.4-31.2-20.2-58.7-44.3-77.4-19.4-15.1-42.4-23-66.4-23-35.6 0-69.4 17.9-90.4 48-0.6 0.8-1 1.6-1.5 2.3 65.2 39.4 125.6 86.5 180.2 140.2 0.6-0.7 1.3-1.5 1.9-2.3zm4.1 8.2c24.5 24.5 47.7 50.3 69.6 77.3 4.8-5.6 9.5-11.4 13.8-17.6 35-50 49.4-111.4 40.5-172.9-8.8-61.4-39.8-115.5-87.3-152.4-38.3-29.7-83.5-45.4-130.9-45.4-70 0-136.5 35.4-178 94.7-4.2 6.1-8 12.4-11.7 18.7 31.1 14.1 61.4 29.9 90.7 47.3 0.6-1.1 1.2-2.2 1.9-3.2 22.6-32.3 58.9-51.6 97.1-51.6 25.8 0 50.4 8.6 71.3 24.7 25.9 20.1 42.8 49.6 47.6 83.1 4.8 33.5-3 67-22.1 94.2-0.8 1.1-1.6 2.1-2.5 3.1zm443.3 277.6c17.7-30.2 10.5-70.6-16.5-91.9q-0.3-0.2-0.5-0.4c-11.4-8.9-24.9-13.6-39-13.6-18.7 0-36.5 8.3-48.9 22.8-1.1 1.4-2.9 1.8-4.5 1.2-1.6-0.6-2.6-2.2-2.7-3.9-1-36.1-27.5-65-61.8-67.1-33.9-2.2-64.1 23.8-69.1 58.9-0.2 1.7-1.5 3.1-3.1 3.5-1.6 0.4-3.4-0.2-4.3-1.7-12.3-18.4-32.4-29.4-53.9-29.4-3.6 0-7.2 0.5-10.8 1.2 11.3 17 22.1 34.4 32.4 52.2 7.1-3.3 14.3-6.3 21.8-8.8 22.7-7.6 46.1-11.5 69.7-11.5 100.1 0 187.8 67.6 218.2 168.2 18.6 61.4 13.3 126.8-14.8 184-28.1 57.3-75.6 99.6-133.9 119.2-7.4 2.5-14.9 4.3-22.4 6q1.8 27.9 2.2 56.1c6.1 2 12.4 3.2 18.9 3.2 6.5 0 13-1.1 19.3-3.1q0.3-0.2 0.7-0.3c21-7 37.1-24.5 43.2-46.7 0.6-2.2 2.8-3.6 4.9-3 21.2 5.3 44.1-0.8 60.2-16.3 24.9-24.1 28.3-65 7.8-93.2-1-1.4-1.1-3.3-0.3-4.8 0.9-1.5 2.5-2.4 4.2-2.1 3.4 0.6 6.8 0.9 10.2 0.9 30.2 0 56.4-21.6 63.7-52.6 8.2-34.6-10.4-70.7-42.3-82.3-1.6-0.6-2.6-2.1-2.7-3.9-0.1-1.7 0.8-3.4 2.4-4.1 30.6-14.9 45.8-52.7 34.5-86.2q-0.2-0.4-0.2-0.8c-9.6-27.2-34.3-45.4-61.8-45.4-5.5 0-11 0.7-16.3 2.2-1.6 0.4-3.4-0.2-4.4-1.7-0.9-1.4-1-3.3-0.1-4.8zm3.1 632.8c19.2-29.9 13.7-69.6-12.8-92.6-11.7-10.1-26.5-15.6-41.7-15.6-17.8 0-34.6 7.4-47.1 20.8-1.2 1.2-2.9 1.6-4.5 0.9-1.5-0.6-2.5-2.2-2.5-4 0.3-26.9-14.6-50.8-36.4-62.5q-0.5 31.3-2.8 62.2c7.5 1.7 14.9 3.6 22.3 6.2 58.1 20 105.4 62.8 133 120.3 27.6 57.6 32.3 123 13.2 184.2-31 99.4-118.4 166.2-217.6 166.2-24.2 0-48.3-4.1-71.5-12.2-7.5-2.5-14.7-5.6-21.8-8.9q-14.1 23.8-29.3 46.7c7.6 10.7 18.1 19.2 31 23.8q0.4 0.1 0.8 0.2c20.7 7.1 44.1 2.8 61.1-11.2 0.7-0.6 1.6-0.9 2.5-0.9 1.2 0 2.3 0.5 3.1 1.5 14.3 17.5 35.7 26.6 57.8 23.9 33.6-4.2 59.1-35.2 58.2-70.7-0.1-1.8 0.9-3.4 2.4-4.1 1.6-0.7 3.4-0.4 4.6 0.9 12.3 12.9 28.7 20 46.2 20 15.5 0 30.6-5.8 42.4-16.3 25.9-23 30.9-63.8 11.5-92.8-1-1.5-1-3.4-0.1-4.9 0.9-1.4 2.6-2.2 4.3-1.9 4.1 0.9 8.4 1.4 12.7 1.4 29 0 55-20.5 63.1-49.9q0.1-0.4 0.3-0.8c9.1-34.4-7.6-70.1-39.2-83.2-1.6-0.6-2.6-2.2-2.6-4-0.1-1.8 1-3.3 2.5-4 31.2-13.5 47.7-50.7 37.7-84.7q-0.1-0.3-0.1-0.6c-8.8-28.9-33.9-48.3-62.7-48.3-4.6 0-9.2 0.5-13.7 1.5-1.7 0.4-3.4-0.3-4.3-1.8-0.9-1.4-0.9-3.4 0-4.8zm-234.3 256c0.8 0.3 1.6 0.6 2.4 0.9 11.3 3.9 23.1 5.9 34.9 5.9 48.6 0 91.4-32.7 106.6-81.3 9.3-30 7-62-6.5-90.2-13.5-28.1-36.6-49.1-65.1-58.9-0.7-0.2-1.5-0.4-2.2-0.7-15.1 78.4-38.9 153.5-70.1 224.3zm-51.5 101.6c6.5 3 13.1 5.8 20 8.1 22.3 7.8 45.5 11.7 68.9 11.7 95.6 0 179.9-64.4 209.8-160.2 18.4-59 13.9-122.1-12.8-177.6-26.6-55.4-72.1-96.6-128.2-116-6.7-2.3-13.6-4.1-20.5-5.7-2.9 35.6-7.7 70.8-14 105.3 1 0.3 2.1 0.6 3.2 1 30.5 10.5 55.3 33 69.8 63.2 14.6 30.2 17 64.6 7 96.8-16.3 52.2-62.2 87.3-114.4 87.3-12.7 0-25.3-2.1-37.5-6.4-1.1-0.3-2.2-0.8-3.3-1.3-14.5 32.2-30.5 63.5-48 93.8zm123.2-724.2c0.8-0.3 1.5-0.4 2.3-0.7 28.5-9.6 51.8-30.3 65.5-58.3 13.8-28.1 16.3-60.1 7.2-90.1-14.8-49.3-57.8-82.3-106.8-82.3-11.5 0-23 1.8-34.1 5.6-0.7 0.2-1.5 0.6-2.2 0.9 30.6 71 53.6 146.3 68.1 224.9zm1.6 8.5c6.1 34.6 10.5 69.8 13.2 105.5 6.9-1.6 13.7-3.3 20.5-5.6 56.2-18.8 102-59.6 129.1-114.9 27.1-55.2 32.2-118.2 14.2-177.4-29.3-97-113.8-162.1-210.3-162.1-22.7 0-45.3 3.7-67.2 11.1-6.9 2.3-13.5 5-20 8 17.2 30.3 33 61.8 47.3 94.1 1.1-0.4 2.1-0.9 3.2-1.3 11.9-4 24.2-6 36.6-6 52.6 0 98.7 35.5 114.7 88.3 20.1 66.7-14.9 138.1-78.2 159.4-1 0.3-2.1 0.6-3.1 0.9zm-188.2 877.9c15.5-21.6 16.8-50.4 5.6-73.5-12 16.5-24.4 32.6-37.3 48.3 5.2 6.2 10.1 12.6 14.7 19.4 73.4 108.3 49.5 259.3-53.4 336.6-39 29.4-85 44.9-132.8 44.9-74 0-143.8-37.8-186.7-101.2-4.6-6.7-8.6-13.6-12.4-20.6-16.5 7-33.1 13.6-50 19.6 0.2 13.2 3.9 26.5 11.6 38.1q0.3 0.3 0.5 0.7c12.4 18.2 32.4 29.1 53.6 29.1l1.9-0.1c2.1 0.1 4.1 1.7 4.2 4.1 1.7 23.1 14.1 43.8 33.2 55.2 9.9 6 21.1 9.1 32.4 9.1 21.7 0 41.9-11.1 54.2-29.7 0.7-1.2 2-1.9 3.3-1.9q0.5 0 1 0.1c1.6 0.4 2.9 1.8 3.1 3.6 5.2 34.8 35.4 60.8 69.4 58.2 33.7-2.4 60.7-32 61.4-67.6 0-1.7 1.1-3.3 2.6-3.9 1.6-0.6 3.4-0.2 4.5 1.1 12.4 14.3 30.1 22.4 48.6 22.4 14.5 0 28.3-4.9 39.9-14.2q0.3-0.3 0.6-0.5c26.8-22 33.3-61.2 15.2-91.5-0.9-1.5-0.9-3.4 0.1-4.8 1-1.4 2.7-2.1 4.4-1.7 5.1 1.4 10.4 2.1 15.7 2.1 28.1 0 53.1-18.8 62.2-46.8q0.1-0.3 0.3-0.6c10.8-33.9-4.3-70.5-35.3-85.3-1.5-0.7-2.5-2.4-2.4-4.1 0-1.8 1.1-3.3 2.7-3.9 32.3-12.1 50.2-47.6 41.7-82.6-7.5-30.7-33.7-52.1-63.8-52.1-3.5 0-7.1 0.3-10.6 0.9-1.7 0.3-3.3-0.6-4.2-2.1-0.8-1.5-0.7-3.4 0.3-4.8zm-296.1 200.7c0.4 0.8 0.9 1.5 1.4 2.3 21 31 55.1 49.5 91.3 49.5 23.5 0 46-7.6 65.1-22 24.4-18.3 40.5-45.6 45.5-76.7 4.9-31.1-2-62.4-19.4-88.1-0.5-0.8-1.1-1.5-1.7-2.3-55.3 52.8-116.5 98.9-182.2 137.3zm-98.5 49.9c3.5 6.4 7.2 12.8 11.4 18.9 41.3 61.1 108.6 97.5 180 97.5 46.1 0 90.4-14.9 128.1-43.2 99.1-74.6 122.2-220.2 51.4-324.6-4.2-6.2-8.7-12.1-13.5-17.8-22.3 26.6-45.9 52-70.7 76.1 0.8 1.1 1.7 2.1 2.4 3.2 18.7 27.6 26.1 61.1 20.8 94.5-5.3 33.5-22.6 62.7-48.8 82.4-20.6 15.4-44.7 23.6-69.9 23.6-38.8 0-75.5-19.9-98-53.2-0.7-1-1.3-2.1-1.9-3.1-29.6 16.8-60.1 32.1-91.3 45.7zm-148.6 50.3c-32.6 8-65.8 14.2-99.5 18.7 0 1.1 0.1 2.3 0.1 3.5 0 33.8-12.5 65.7-35.2 89.6-22.7 24-53 37.2-85.1 37.2-32.2 0-62.4-13.2-85.2-37.2-22.7-23.9-35.2-55.7-35.2-89.6 0-1.2 0.1-2.4 0.1-3.6-33.7-4.4-66.9-10.6-99.5-18.6-0.7 7.3-1.1 14.7-1.1 22.2 0 128.3 99 232.7 220.8 232.7 121.8-0.1 220.9-104.4 220.9-232.7 0-7.5-0.4-14.9-1.1-22.2zm-219.7 26.5c-37.9 0-75.3-2.4-112.1-6.9 0 0.9-0.1 1.7-0.1 2.6 0 31.5 11.7 61.2 32.8 83.5 21.2 22.3 49.4 34.6 79.3 34.6l0.1 4.3v-4.3c29.9 0 58.1-12.3 79.3-34.6 21.2-22.3 32.8-52 32.8-83.5 0-0.9-0.1-1.7-0.1-2.6-36.8 4.5-74.1 6.9-112 6.9zm1586.5-1025.7c0-217-161-397.8-366.5-411.5-1.6-0.1-3-1.2-3.5-2.8-0.6-1.6-0.2-3.4 0.9-4.6 76.8-78.4 119.1-183.6 119.1-296 0-227.4-175.6-412.4-391.5-412.4-69.4 0-137.6 19.4-197.4 56.2-1.4 0.9-3.2 0.8-4.5-0.2-1.3-1-2-2.8-1.6-4.5 6.7-30.7 10.2-62 10.2-93.1 0-227.4-175.7-412.4-391.6-412.4-158.4 0-300.2 99.5-361.3 253.5-0.7 1.6-2.1 2.7-3.8 2.7-1.4 0.3-3.1-1-3.8-2.6-62.9-148.5-203.3-244.4-357.5-244.4-215.9 0-391.5 185-391.5 412.4 0 30.7 3.3 61.5 9.8 91.8 0.4 1.7-0.2 3.4-1.6 4.4-1.3 1.1-3.1 1.2-4.5 0.3-60-37.2-128.5-56.9-198.3-56.9-215.9 0-391.5 185-391.5 412.4 0 108.3 39.5 210.6 111.5 288.1 1 1.2 1.4 2.9 0.9 4.4-0.5 1.6-1.7 2.7-3.3 2.9-189.4 30.3-332.3 205.6-332.3 407.8 0 213.4 158.1 393.9 359.9 410.9 1.6 0.2 3 1.3 3.6 3 0.5 1.7 0 3.5-1.3 4.7-88.4 78.6-139 193.5-139 315.1 0 227.4 175.6 412.4 391.5 412.4 68.2 0 135.4-18.9 194.4-54.5 1.4-0.9 3.1-0.8 4.5 0.2 1.3 0.9 1.9 2.6 1.6 4.3-3.9 23.8-5.9 47.8-5.9 71.3 0 227.4 175.6 412.4 391.5 412.4 186.8 0 321.9-87.2 370.7-239.2-33.1-1.3-61.2-25.6-69-59-13.9 15.2-33.3 24.1-53.6 24.1-13.7 0-27.1-4.1-38.9-11.7-30.2-19.7-42.6-58.1-30.9-92.4q-7.9 1.9-16.2 1.9c-28.8 0-55.2-17.8-67.3-45.3-9.8-22.4-9-48.2 2.1-69.9-18.4-14.5-29.4-37.2-29.7-61.6q-0.1-0.4-0.1-0.9c0-15.3 4.2-29.6 11.5-41.6-10.5-3.5-20.9-7.2-31.3-11-13.8 16-33.4 25.7-54.5 25.7-5.4 0-10.7-0.6-15.9-1.8 11.9 34.3-0.3 72.9-30.5 92.8-11.8 7.7-25.3 11.8-39.1 11.8-20.1 0-39.5-8.7-53.3-23.7-7.9 34.6-37.4 59.6-72 59.6h-1.9q-0.4 0-0.7-0.1c-34.7-1.2-64-28.4-70.3-63.6-13.6 13.3-31.5 20.8-50.4 20.8-15.3 0-30-4.8-42.5-14.1q-0.4-0.2-0.7-0.6c-28.1-21.2-38.1-60.7-24.9-93.7q-6 1-12.1 1c-30.7 0-57.7-19.4-69-49.5-13-34.9-0.9-73.5 28-93.5-31.2-14.8-49.4-51.5-42-87.5 4.8-24.1 20.2-44.3 41.4-54.6-6.4-23.2-2.3-48.3 11.4-68q0.2-0.4 0.5-0.8c8.7-12.2 20.4-20.9 33.5-26-1.5-2.3-3.1-4.5-4.7-6.7-5.2 1.2-10.6 2-16 2-21.1 0-41.1-9.4-55-25.6-8.7 33.2-38 57.2-71.3 57.2q-2.2 0-4.5-0.1c-35.5-2.3-63.7-30-68.8-66.1-13.4 12.2-30.7 19.1-48.6 19.1-16.1 0-31.5-5.4-44.4-15.6q-0.3-0.3-0.6-0.6c-27.6-22.2-36.5-62.1-22.2-94.7q-4.8 0.7-9.6 0.7c-31.3 0-59.3-20.9-69.8-51.9q-0.2-0.5-0.3-0.9c-11.2-34.5 2.3-72.8 31.2-91.7-30.7-15.8-47.8-53.1-39.3-88.9 8.4-35.7 39.4-60.5 74.2-59.1-17.3-31.1-12-72.1 13.8-97 17.1-16.6 41-23.7 63.8-19.3 7.6-22.8 24.8-40.7 46.8-48.4q0.3-0.2 0.7-0.4c7.3-2.4 14.9-3.7 22.5-3.7 6.5 0 12.8 1.1 18.9 2.8q-0.1-1.8-0.1-3.5c-24-10.8-41.6-34.4-44.9-62.1-13.1 11.3-29.9 17.7-47.1 17.7-16.9 0-32.8-5.9-46.1-17-27.8-23.4-35.7-63.2-20.1-95.8q-3.8 0.4-7.6 0.4c-32.1 0-60.5-21.6-70.4-53.9q-0.1-0.4-0.2-0.8c-10.4-34.9 4.1-72.9 33.5-90.9-30.7-16.8-46.4-54-36.9-90.1q0.1-0.4 0.3-0.9c9.6-34.6 41.2-58.3 75.6-56-16.5-31.6-10.1-72.4 16.4-96.6 13.5-12.3 30.7-19 48.4-19 16.3 0 31.9 5.5 44.6 15.7 2.9-35.9 29.6-66.2 64.3-71 23-3.2 46.5 5.5 62.7 23 18.4-14 42.8-18.3 64.7-11.3q0.4 0 0.8 0.2c14.1 4.6 25.7 13.4 34.5 24.5q5.5-8.4 11.2-16.6c-13.6-23.6-14.7-53.8-1.7-78.4-34.7 2.1-66.6-22-75.8-57.3-9.4-36.1 6.5-73.2 37.3-89.9-30-18.3-44.1-56-33.1-91.6q0.1-0.4 0.3-0.8c10.2-31.8 38.3-53.1 70.2-53.1q3.8 0 7.7 0.5c-15.4-32.7-7.3-72.5 20.5-95.7q0.4-0.3 0.8-0.6c13.1-10.6 28.7-16.2 45.2-16.2 17.2 0 34 6.4 47.2 17.9 4.3-35.8 32.4-64.8 67.3-67.9 35.5-3.1 67.2 20.4 77 55 14-17.1 34.4-27 56.2-27 12.3 0 24.6 3.3 35.4 9.5 20.6 11.8 34.5 33.1 37.9 57.5 22.9 0.2 44.7 11.7 58.6 31q0.3 0.3 0.5 0.6c8.7 12.4 13.2 26.6 14.2 40.8q12.2-4.5 24.6-8.6c2.6-27.3 18.6-52 42.8-63.6-29.2-19.9-41.4-58.5-28.6-93.5 10.9-29.8 38.7-49.9 69.1-49.9q5.8 0 11.6 1c-13.8-33.5-3.8-72.7 25.1-94.4q0.3-0.2 0.6-0.4c12.5-9.2 27.1-14.1 42.4-14.1 18.7 0 36.5 7.4 50 20.5 6.1-36 35-62.9 70.5-64.1 0.3-0.1 0.6 0 0.9 0 34.6-0.8 65.2 24.3 73.4 59.2 13.9-15.2 33.3-24.1 53.6-24.1 13.7 0 27.1 4 38.9 11.6 30.2 19.7 42.6 58.2 30.9 92.5q8-1.9 16.2-1.9c28.8 0 55.2 17.7 67.3 45.2 9.8 22.4 9 48.3-2.1 69.9 18.5 14.5 29.4 37.2 29.7 61.6q0.1 0.4 0.1 0.9c0 15.2-4.4 29.4-11.7 41.5q11.7 3.9 23.2 8c13.8-16.2 33.6-26.1 55-26.1 5.1 0 10.2 0.6 15.2 1.7-12.2-34.2-0.3-72.9 29.7-93.1 11.9-8 25.6-12.2 39.7-12.2 19.9 0 39 8.5 52.8 23.2 7.6-34.9 37.2-60.3 72.2-60.3h1.2q0.3 0 0.6 0.1c34.7 0.9 64.3 27.7 70.9 62.9 13.7-13.6 31.8-21.3 51-21.3 14.9 0 29.4 4.7 41.9 13.7q0.3 0.3 0.6 0.6c28.3 20.9 38.7 60.4 25.8 93.5q6.3-1.2 12.7-1.2c30.4 0 57.4 19.2 68.8 48.9 13.2 34.8 1.5 73.5-27.3 93.8 31.4 14.5 49.9 51 42.9 87-4.7 24.2-19.9 44.5-41 55.1 6.7 23.1 2.7 48.3-10.8 68.1q-0.2 0.4-0.4 0.7c-8.5 12.1-20.3 21-33.4 26.3 3.4 4.8 6.8 9.6 10.1 14.5 5.3-1.2 10.6-2 15.9-2 21.2 0 41.1 9.4 55 25.7 9.2-34.7 40.7-59.4 75.9-57.1 35.5 2.3 63.7 30 68.8 66.1 13.4-12.2 30.6-19 48.6-19 16.1 0 31.4 5.4 44.4 15.6q0.2 0.2 0.4 0.4c28.2 22.6 37 61.9 22.4 94.8q4.8-0.7 9.6-0.7c31.2 0 59.3 20.9 69.8 52q0.1 0.4 0.2 0.8c11.2 34.5-2.3 72.9-31.2 91.7 30.7 15.9 47.8 53.2 39.3 89-8.5 35.7-39.1 60.3-74.3 59.1 17.3 31.1 12 72.1-13.8 97-17.1 16.5-41 23.7-63.8 19.2-7.5 22.8-24.8 40.8-46.8 48.4q-0.3 0.2-0.7 0.3c-7.3 2.5-14.9 3.7-22.5 3.7-6.4 0-12.7-1-18.8-2.7 0 2.3 0.1 4.6 0.1 6.9 0 3.1-0.1 6.2-0.1 9.3 23.8 11.1 41.2 34.9 44.1 62.7 13.1-11.1 29.2-17.1 46.3-17.1 17.1 0 33.7 6.3 46.9 17.6 27.5 23.8 35 63.7 19 96.1q3.3-0.4 6.6-0.4c32.6 0 61 22.1 70.7 54.9q0.1 0.3 0.1 0.7c10.1 35-4.9 73-34.5 90.6 30.5 17.2 45.8 54.6 35.8 90.5q-0.1 0.5-0.3 0.9c-9.9 34.4-42 57.5-76.3 55 16.1 31.8 9.2 72.6-17.6 96.4-13.3 11.9-30.3 18.4-47.7 18.4-16.6 0-32.4-5.7-45.3-16.3-3.3 35.9-30.4 65.8-65.1 70.1q-4.4 0.5-8.8 0.5c-20.3 0-39.7-8.8-53.7-24.3-18.5 13.6-42.9 17.7-64.7 10.4q-0.5 0-0.9-0.2c-14-4.8-25.5-13.7-34.2-24.9q-6.7 10-13.7 19.7c13.2 23.9 13.8 54 0.5 78.4 35-1.6 66.1 23 74.8 58.6 8.8 36.3-7.6 73-38.7 89.2 29.7 18.8 43.2 56.8 31.6 92.2q-0.1 0.3-0.3 0.6c-10.4 31.1-38.4 52-69.8 52q-4.5 0-8.9-0.6c14.9 33 6.2 72.6-22.1 95.3q-0.3 0.3-0.7 0.5c-12.9 10.2-28.1 15.5-44.2 15.5-17.8 0-34.9-6.7-48.2-18.7-4.9 35.7-33.4 64.2-68.4 66.7q-2.5 0.2-5 0.2c-33 0-62.2-23.8-71.1-56.6-13.9 16.5-34 26.1-55.4 26.1-12.7 0-25.3-3.6-36.5-10.2-20.4-12.2-34-33.8-36.9-58.2-22.9-0.5-44.5-12.4-58.1-32q-0.3-0.3-0.5-0.7c-8.5-12.5-12.8-26.7-13.6-41q-4.5 1.7-9.2 3.2c-2.6 27.3-18.6 52-42.8 63.6 29.2 19.9 41.4 58.5 28.6 93.4-10.9 29.9-38.7 49.9-69.1 49.9q-5.8 0-11.6-0.9c13.8 33.4 3.8 72.7-25.1 94.4q-0.3 0.2-0.6 0.4c-12.5 9.2-27.1 14.1-42.4 14.1-18.7 0-36.5-7.4-50-20.5-5.9 34.8-33.2 61-67.1 63.8 48.8 152.1 183.9 239.3 371 239.3 215.8 0 391.5-185 391.5-412.4 0-23.1-2-46.8-5.8-70.3-0.3-1.7 0.4-3.4 1.7-4.3 1.3-1 3-1.1 4.4-0.2 58.6 35 125.2 53.5 192.8 53.5 215.9 0 391.5-185 391.5-412.4 0-119.1-48.9-232.3-134.2-310.8-1.3-1.1-1.8-2.9-1.3-4.6 0.6-1.6 2-2.8 3.6-3 200.9-17.8 358.2-198.3 358.2-410.8z"/></svg>