<svg version="1.2" xmlns="http://www.w3.org/2000/svg" viewBox="0 0 1164 956" width="1164" height="956"><style>.a{fill:#3f3731}</style><path fill-rule="evenodd" class="a" d="m1067.4 382.5q-1.5-0.9-3-1.8 0.3-2.6-2.3-1.9-7.9-3.9-15.8-7.8c-3.3-3.4-8.2-3.6-12.2-5.7-8.7-4.6-17.8-8.1-26.9-11.8-11.7-5.2-23.4-10.3-35-15.6-18.2-8.4-35.9-17.8-54.6-25.2-14.8-5.9-30-10.5-45.9-12-37.3-3.8-73 2.9-107 18.7-14.4 6.7-27.2 15.9-39.6 25.8-10.6 8.6-20.5 18-29.8 28-0.5 0.3-1.3 0.3-1.5 0.7-2.1 4.1-5.4 5.9-9.9 6.1-1.1 0-2.3 0.7-3.4 1.1 0.3 0.8 0.3 1.3 0.2 1.7 0.1-0.4 0.1-0.9-0.2-1.7-16.1 1.5-32.2 3-48.3 4.4-1.2 0.1-3.1 1.1-3.6-0.6-0.5-1.5 1.3-2.3 2.3-3.1 6.3-4.9 12.7-9.7 19.1-14.5 8.8-6.4 17.6-12.7 26.4-19.1 11.2-8.1 22.3-16.3 33.6-24.3 6.8-4.7 12.9-10.5 20.7-13.6 3.6 0.1 5.9-2.4 8.3-4.4 13.1-11.1 26.9-21.2 41.7-30 4.4-2.6 9.5-4.3 12.5-8.9 10.4-5.4 20.8-11 31.4-16.2 17.7-8.8 36.3-14.9 56.2-17.3 27.2-3.2 54.2-8.1 80.5-16.4 37.9-12.1 73.3-29 104.6-54.1 19.9-15.9 38-33.6 53.7-53.6 14-18 24-38.7 38.3-56.4 8.4-7.3 8.1-15.7-0.7-19.8q-0.7-0.2-1.4-0.4c-0.9-1-2-1.4-3.3-0.6q-5.2-0.4-10.3-0.9c-2.5-0.8-4.8-2.2-7.6-2-1.4-0.6-2.8-1.3-4.5-1-5.5-2.3-11.3-3.3-17.3-3.1-25.5-2-50.8-0.9-76 3.7-31.2 5.8-60 16.9-84.3 38.1-18.4 16.2-32.9 35.6-44.6 57-8.9 16.2-18.2 32.1-29.5 46.7-1.4 0.4-2.2 1.1-1.7 2.6q-0.6 0.6-1.2 1.2c-1.4 0.3-2.1 1.1-1.7 2.6q-0.5 0.7-1.1 1.4c-3.5 1.7-5 5.2-7.1 8-6.4 8.1-14.7 14.4-20.8 22.7-12.5 10.2-26.7 18-39.8 27.3-9.4 6.6-19 13-28.4 19.6-7.7 5.3-14.8 11.7-23 16.1-16.3 8.9-32.7 17.5-48.6 27.2-17.6 10.8-33.9 23.2-50.5 35.4-9.1 6.7-17.8 14.1-26.8 21.1-3.2 2.5-6.6 4.7-10.9 7.7 8.1-17.4 17.6-32.4 28.5-46.6 3.6-4.7 6.7-9.7 12.7-12.3 22.4-9.5 38.5-25.7 50-46.9 11.1-20.4 20.6-41.5 28.2-63.3 7.3-21 12-42.6 14.2-64.8 1.9-18.3 1.1-36.6 0.8-54.9-0.1-6.9 0.4-13.8-1.8-20.5q0.3-0.6 0.6-1.3c0.5-9.2-1.6-18.2-3.6-27.1-1.1-4.7-0.7-9.9-4.5-13.6v-0.1c0.7-1.1 0.3-1.9-0.8-2.5-0.5-1.7-1.6-2.9-3.1-3.9-1.7-4.5-5.1-6.2-9.8-5.7-3-0.3-5.9 0.3-8.5 2-9.2 3.6-15.4 11.2-23.1 16.8-6 4.8-11.8 9.9-18 14.5-15.8 12-31.6 24-46.8 36.8-17 14.2-31.7 30.4-41.7 50.5-11 22.1-17.4 45.2-14.6 70 2.2 18.9 7.9 37 14.7 54.8 6 16 14.7 30.4 28.3 41.3 0.8 0.8 1.6 1.7 2.7 2.3 3.7 2 4.1 4.5 1.8 8-1.7 2.6-2.4 5.7-2.6 8.9-4.2 10.1-7.8 20.5-12.7 30.3-11.3 22.4-21.2 45.7-38.3 64.8-7.9 8.8-14.9 18.4-23.7 26.4-2 1.8-5 2.9-6.4 5.1-4.6 7.3-11.9 12-17.4 18.3-6.9 8.1-14.5 15.4-21.4 23.5-9.3 10.8-18.7 21.5-29 31.4-8.9 8.4-18 16.8-26.9 25.3-16.4 15.6-32.6 31.4-49 46.9-15.1 14.2-30.6 27.9-45.4 42.2-11.8 11.3-24 22.2-35 34.2-1.4 1.4-2.7 3.3-5.3 3.7 3.2-15.7 6.4-31 9.6-46.4 1.3-4.2 6.2-3.7 8.6-6.4 12.3-5.6 23.2-13.5 32.3-23.4 13.3-14.6 23-31.9 31.6-49.6 8.2-17 15.1-34.4 21-52.3 10.2-30.8 16.1-62.4 16.1-94.8 0-35.2-7.3-69.3-20-102.2-2.2-8.4-5.4-16.5-10-23.9-2.3-5.4-4.7-10.8-9.3-14.8 0.2-1.6-0.1-2.7-2.1-2.1q-1.6-0.8-3.3-1.6c-2.5-2.5-5.7-1.2-7.4 0-6.6 4.6-11.9 10.6-15 18.2-5.1 7.5-10.3 14.9-15.3 22.4-7 10.6-14.9 20.6-21 31.8-0.3 4.2-1.9 8-3.6 11.7 1.7-3.7 3.3-7.5 3.6-11.7-0.4 0.1-1.1 0.1-1.3 0.4-5.4 8.3-11.8 15.9-16.5 24.7-0.3 0.2-0.6 0.3-0.7 0.6-17.8 26.3-33.5 53.7-43.7 84-9.4 28.2-14.7 56.8-12.1 86.6 2.4 27.6 13 51.5 30.7 72.6 1.3 3.3 3.2 6.1 6.1 8.2 2.5 2.3 2.9 5.2 2.6 8.4-0.3 4-0.4 8-0.7 12-1.9 23.1-5.8 45.8-16.8 66.7-7.6 14.4-15.8 28.5-22.5 43.4-0.8 1.9-2.1 3.4-3.6 4.8-18.2 17.6-36.6 35.2-54.8 52.9-16.3 15.9-32.2 32.2-48.6 47.9-15.6 14.9-31.6 29.4-47.5 43.9-4.3 3.9-8.7 7.6-13.1 11.4q-0.5-0.3-0.9-0.6 3.3-21.8 6.6-43.7c1.4-7.4 7.6-12.1 10.7-18.6q7.2-10.1 14.4-20.2c15.9-22.3 29.7-45.6 38.6-71.7 13.2-38.5 18.5-78 16-118.6-1.7-27.7-7.3-54.6-16.6-80.7-4.5-12.6-8.6-25.3-15.1-37.1 1.3-1.8-0.2-3.2-0.7-4.7-1.6-4-3.2-7.9-5.2-11.8-3.4-6.8-4.9-14.4-9.1-20.9-0.6-2.1-1.1-4.4-2-6.5-2.2-5.2-3-11.2-7.8-15.1 0.2-0.9-0.5-1.5-1.1-2-1.7-3.7-5.3-4.1-8.4-3.6-5 0.7-9.6 2.6-11.6 8.1q-0.5 0.6-1.1 1.2c-2.1 1-2.8 2.7-2.8 4.8q-1 2.1-2 4.1c-1.5 0.8-1.9 2.4-2.5 3.8-3.7 7.4-7.5 14.8-11 22.4-1.5 3.1-4.8 5.3-4.6 9.3q-7.5 14.4-15 28.8c-1.8 0.8-2.4 2.2-2.1 4.1q-4 7.3-8 14.6c-2 1-2.7 2.8-2.6 4.9-4 7.3-7.8 14.7-11.9 21.9-23.4 40.2-32.4 83.1-24.7 129.3 7.9 47.4 21.3 92.9 45.8 134.6 4.3 7.4 9.3 14.5 15.8 20.3 0.8 2.3 1.1 4.5 1 7-0.6 17.3-3.3 34.3-4.7 51.4-1.2 2.3-0.7 5.3-2.7 7.2-3.9 3.6-7.1 8-11.1 11.6-10 8.9-19.6 18.3-29.4 27.3-2.7 2.5-2.8 4.1 0.9 5.3 0.8 0.3 1.5 0.6 2.2 0.9q4.2 2.1 8.4 4.2c0.9 0.5 2 0.8 2.9 1.5 3.9 2.9 6.7 1.9 10.2-1.3 7.3-6.6 14.1-13.7 21.1-20.6 1.1-0.1 2-0.7 2.4-1.8 13.1-11 25-23.3 37.3-35.2 7.4-7.2 14.8-14.1 24.7-18.2 9-3.6 18.2-6.7 26.6-11.7 10.8-1.4 21.6-1.3 32.5-1.9 4.7-0.2 9.7 0.7 14.3-1.5 10 0.6 19.9-0.3 29.9-0.6 12.6-0.3 25.1 1.7 37.6 2.2 3.9 1.7 10.5-0.5 10.4 7.1 0.6 4.1 1.2 8.2 1.8 12.3 2.9 18.4 12.4 32.2 28.7 41.7 14.7 8.5 30.3 14.3 46.5 19.2 33.7 10.2 67.9 12.7 102.8 7.3 30.7-4.8 59.7-14.7 87.7-28 16.4-7.8 32.5-15.9 47.8-25.8 7.4-4.8 14.7-9.9 21.6-15.4 2.7-0.2 4.2-2.3 5.8-4.1 3.6-4.2 9.6-5.7 12.6-10.7 2.5-4.3 7.5-6 10-10.3 3.8-4.5 7.4-9.2 6.4-15.7q-0.1-1.2-0.2-2.3c-0.5-4.4-1.5-8.6-6.6-10.1-1.1-2.2-3.6-2.5-5.1-4.1-0.6-2.1-2.5-2.5-4.1-3.4-6.5-3.6-13-7.1-19.4-10.8-9.2-5.3-18.4-10.9-27.7-16.3-17.5-10.9-34.7-22.3-52.8-32.3-20.9-11.5-41.8-22.9-65.8-27.4-31.7-6-62.9-5.8-93.8 4.2-30.9 10.1-55.5 29.4-77.1 53.1-6.1 6.6-11.6 13.7-17.9 19.9-8.4 8.2-18.7 14-28.7 19.9-4.5 2.7-8.4 6.3-14.3 6.7-21.9 1.7-43.7 3.9-65.5 5.9-5.2 0.5-10.5 1.1-16.2 1.8 0.5-1.2 0.5-1.7 0.8-2 13.6-13.7 27.2-27.5 40.9-41.3 8.5-8.6 17.3-17 25.8-25.7 12-12.1 23.9-24.3 35.9-36.4 11.7-11.8 23.5-23.4 35.2-35.2 16.5-16.6 32.8-33.3 49.4-49.8 14.3-14.2 29-28 43.1-42.4 5.2-5.3 11-9.9 15.6-15.7 2.4-2.9 5.2-6.9 8.8-7.2 10.8-1.1 21.4-4.2 32.4-3.7 8.9 0.5 17.9 0.2 26.8 0.2 0.6 0.1 1.2 0.4 1.8 0.4 4.4-0.3 5.8 1.6 4.8 5.8-0.3 1.5-0.6 3.4 1 4.7-1.1 15.3 2.6 29.4 13.5 40.3 13.1 12.9 29.3 21.4 46.6 27.5 36.7 13 74.5 16 113.1 12.3 52.9-5.1 103-20.1 151-42.5 12.7-5.9 25.3-12 34-23.7 2.2-3.1 3.8-6.4 2.5-10.4 0.3-2.8-0.7-5.3-2.5-7.5 0-1.9-0.4-3.3-2.7-3.3q-1.1-0.8-2.3-1.5c0.2-1.3-0.8-1.8-1.7-2.4-4.7-2.9-9.2-6-14-8.6-5-2.8-10.2-5.3-15.3-7.8q-6.1-3.4-12.2-6.8c-1-2-2.8-2.7-4.9-2.6q-4-2.4-8-4.7c-0.3-1.4-1.2-1.7-2.4-1.4q-2.8-1.7-5.6-3.5c-0.3-1.4-1.3-1.6-2.6-1.6q-1.8-1.2-3.6-2.5c-0.3-1.4-1.4-1.6-2.6-1.6q-3.8-2.5-7.5-4.9c-7.4-7.5-16-13.3-25.5-18-2.3-2.2-5-4-7.8-5.6-32.4-18.5-67.6-23-104.1-20.8-41.8 2.5-77.5 20-109.1 46.7-8.4 7.1-16.5 14.4-24.7 21.7-1.7 1.5-3.4 2.3-5.8 2.3-12.4-0.1-24.9-0.1-37.4-0.1q-0.2-0.6-0.4-1.2c1.9-3.2 4.6-5.7 7.3-8.3q15.5-14.9 30.8-29.9c15.7-15.4 31.3-30.9 46.9-46.5 13.5-13.5 26.8-27.2 42.2-38.6 6.9-5.1 13.4-10.8 21.7-13.7q20-7.2 39.8-14.9c15.9-6.2 32.1-11.6 48.8-15.4 3.5 0.5 6.7-0.4 9.7-2q1.3 0.2 2.6 0.4c0.2 3.3 0.7 6.4 2.7 9.2 3.4 7.9 7 15.9 12.8 22.2 12.5 13.6 27.8 23.4 45 30 25.2 9.7 51.8 13.7 78.5 16.6 30.4 3.2 60.2-1.4 89.6-9.4 41.6-11.3 81.3-27.7 120.6-45.2 1.3-0.6 3-0.8 3.5-2.5 0.6 0.4 1.1 0 1.7-0.3 7.4-2.4 14.6-5.7 20.9-10.5 4.4-2.4 8.3-5.4 10.3-10.3 2.9-4.2 1.4-10.5-3.6-14zm-330.1-79.2v-0.1q0 0.1 0 0.1zm120.9-85.5c0.6-1.1 1.5-2 2.4-2.7-0.9 0.7-1.8 1.6-2.4 2.7zm4.4-13.1c0 0 0-0.1 0-0.2zm-7.6 14.4q-0.2 0.3-0.3 0.6 0.2-0.3 0.3-0.6zm-789.4 594.4l0.4-0.1c0 0-0.4 0.1-0.4 0.1zm27.6-380q-0.1-0.2-0.3-0.2 0.2 0 0.3 0.2zm596.1-36.2q2 0.5 3.8 1.3-1.8-0.8-3.8-1.3z"/></svg>