<svg version="1.2" xmlns="http://www.w3.org/2000/svg" viewBox="0 0 640 632" width="640" height="632"><style>.a{fill:#3b332d}</style><path class="a" d="m0 203.8c3.8 4.2 5.3 4.2 9.5 0.4 2.2-2 3.9-4.5 5.7-6.9 8.3-11.1 16.5-22.2 25.7-32.6 7.3-8.3 15.5-15.6 24.3-22.4 13.2-10.1 24.9-21.6 35.1-34.8 12.1-15.7 20-33.4 24.7-52.5 1.1-4.6 1.3-9.4 2-14.5 1.8 0.9 1.9 2.1 2.3 3.1 4.7 12.9 9.2 25.8 14 38.6 2.2 5.9 2.2 11.7 0.8 17.5-1.8 7.3-4.9 14.1-8.9 20.4-7.3 11.5-16.3 21.6-24.6 32.4-12.3 15.9-22.3 33-28.3 52.3-4.5 14.5-4.4 29 0 43.5 2.4 7.8 5.1 15.5 8.1 23.1 7.3 18.3 10.4 37.1 9.7 56.8-0.3 8-1.2 16-1.9 23.9-0.8 7.6-2.5 15-3.5 22.5-0.2 1.6-0.6 3.3-0.1 4.9 0.4 1.4 1.2 2.4 2.7 2.5 1.3 0.2 2.3-0.5 3-1.5 0.8-1.2 1.2-2.5 1.4-3.8 2.4-14.7 9.3-27.5 17.1-39.9 6.7-10.4 13.3-20.9 17.7-32.5 6.1-16.1 7.8-32.6 4.7-49.5-1-5-1.9-10-3-14.9-3-13.6-1-26.6 4.9-39.1 2.2-4.7 4.5-9.4 6.8-14.1 5.2-10.6 7.3-21.9 7.8-33.6 0.5-11.2-0.3-22.3-1.2-33.9 1.2 0.8 1.3 1.9 1.7 2.7 9.9 24.7 20.5 49.1 32.2 73 8.4 17.1 16.3 34.4 23.4 52.1 1.7 4.1 1.9 8.2 1.6 12.6-0.8 12-4.6 22.9-10.6 33.3-4.4 7.7-8.8 15.6-12.1 23.9-1.4 3.4-2.7 6.9-3.5 10.6-2.3 10.6-0.7 20.7 4.5 30.2 1.7 3.1 3.6 6.2 5.3 9.3q5.7 10.4 1.3 21.5c-2.2 5.7-4.5 11.3-6.7 17-1.8 4.5-2.8 9.1-3.3 13.9-1.1 8.8 2.9 15.8 7.7 22.6 3.4 4.9 6.8 9.7 10.1 14.7 5 7.6 8.8 15.9 12.3 24.2 0.5 1.3 1 2.5 1.7 3.7 0.7 1.3 1.8 2.4 3.5 2.3 1.9-0.2 2.8-1.6 3.3-3.2q0.4-1.5 0.6-3.1c1.3-12.2 5.6-23.3 12-33.7 6.6-10.6 11.5-21.9 14.1-34.1 2.9-14.1 1.8-28.2-1.4-42.1-2.4-10.1-5.1-20.1-7.7-30.2-4.5-17.4-8.2-35-11.2-52.8-0.6-3.3-1.3-6.6-2-10.1 1.7 0.4 2 1.7 2.5 2.7 16.4 28.2 34.8 55.1 55.2 80.4 4.3 5.4 8.9 10.5 13.3 15.7 6.2 7.2 11.1 15.4 16.5 23.3 1.5 2.2 1.2 4.9 1.1 7.3-0.8 12.2 0.8 24.1 4.4 35.7 2.2 7 5.5 13.5 9.1 19.8 8.2 14 18.7 25.7 32.7 34.1 9.9 6 20.7 9.7 31.7 13.2 6.6 2.1 13.2 4.3 19.9 6.5 15.4 5.2 27.5 15 38.2 27 8.2 9.3 16.4 18.9 25.7 27.2 13.5 12.2 28.1 22.5 45.8 27.7 8 2.3 16.1 4.2 24.3 6.1 18.6 4.1 36.6 10.2 54.2 17.6q10.3 4.3 20.5 8.7c2.3 1 4.6 1.5 7 1.5 3.2 0 4.9-2 4.6-5.2-0.3-2.6-1.5-4.8-2.7-7-5.1-9.3-10.3-18.5-15.3-27.8-6.7-12.3-13.1-24.7-19.7-37-11.9-22.3-28.5-40.4-47.7-56.5-24.8-20.8-53.1-34.9-83.7-44.8-14.9-4.7-30.1-8.5-45.2-12.2-21.5-5.3-42.5-11.9-62.8-20.4-11.4-4.7-21.3-11.7-29-21.6-2.3-2.9-5-5.4-7.7-8-6-5.5-9.9-12.6-14.5-19.1-6.7-9.3-13.1-18.8-19.6-28.2q-6.9-10.1-13.9-20.3c-0.4-0.6-0.8-1.2-0.6-2.2 1.3 0 2 1 2.9 1.6 13 9.5 27 16.9 42.6 21 9.2 2.4 18.7 3.4 28.3 3.8 7.5 0.2 15.1 0.1 22.7 0.7 16.7 1.4 31.9 7.1 46.4 15 9.2 4.9 17.8 10.8 26.4 16.7 16.9 11.6 34.2 22.7 52.4 32.3 8.7 4.6 17.5 8.7 27 11.7 8.3 2.5 16.6 3 25.1 1.6q11.1-1.8 22.1-3.6c13.1-2.2 26.4-2.4 39.6-3.1 1.8-0.1 3.6-0.1 5.3-0.4 5.5-0.9 7.7-4.4 5.8-9.7-0.8-2.2-1.9-4.4-3-6.4-15.4-26.5-34.4-50-58.2-69.4-20.6-16.9-43.9-28.9-69.3-37-21-6.7-42.7-10.8-64.6-12.8-21.6-1.9-43.1-1.5-64.7 0.7-21.2 2.1-42.4 3.6-63.5 6.6-14.2 2-27.4-1.7-40.6-6.2-6.1-2-10.3-5.5-13.8-11.1-22.1-35.8-42.1-72.8-60.2-110.8-11.4-24-20.6-48.7-29.2-73.8-0.5-1.3-0.8-2.7-0.9-4.2 3 2.9 5.7 6 8.8 8.8 11.1 10.4 24.1 17.7 38.3 23.2 8.3 3.2 16.9 5.6 25.4 8.4 15.8 5.2 27.3 15.3 35.1 29.9 4.8 9 9.4 18.2 15.1 26.7 9.9 14.6 22.5 25.7 39.5 31.4 11.2 3.7 22.7 4.2 34.4 3.6 12.6-0.7 25.2-2.7 37.7-4.1 15.1-1.7 30-1.8 45 0.7 12.2 2.1 23.6 6.3 34.2 12.4 20.1 11.6 40.1 23.4 60.2 35.1 1.4 0.8 2.8 1.7 4.3 2.2 3.6 1.2 6.1-0.2 7.3-3.8 0.4-1.6 0.5-3.2 0.4-4.9-0.6-26.1-9.6-48.7-27.2-68-11.5-12.7-24.2-24.1-38.6-33.6-18.7-12.4-38.8-21-61.2-24.5-9.1-1.4-18.3-2.5-27.4-3.5-11.8-1.4-23.6-3.5-34.9-7.3-13.2-4.4-24.1-12.1-33.5-22.2-6.8-7.5-13.5-15.1-20.4-22.4-11.8-12.5-25.4-22-42-26.8-19-5.5-38-5.1-56.9 0-10.5 2.8-20.8 6.5-30.9 10.5-5 1.9-10 4-15.3 4.9-4.5 0.7-5.5 0.3-6.9-4.1-3.5-11-6.8-22.1-10.1-33.3-2.2-7.4-4.3-14.8-6.3-22.3q-7.6-0.9-15.1-1.9c-0.4 1.9-1.5 3.2-3.3 3.9-2.8 1.3-5.6 2.8-8.5 3.9-16.6 6.5-31 16.1-43.3 29.1-17.7 18.6-26.8 40.5-27.6 65.8-0.3 8-1.7 15.7-4.1 23.2-5 15.4-11.1 30.4-15.8 45.9-2.2 7.1-4 14.4-6.9 21.2-1.3 3.3-2.5 6.7-5.4 9q-0.2 0.9-0.3 1.8z"/></svg>