<svg version="1.2" xmlns="http://www.w3.org/2000/svg" viewBox="0 0 730 480" width="730" height="480"><style>.a{fill:#3b332d}</style><path class="a" d="m729.2 250c-4.7-3.1-6.2-2.7-9.2 2.1-1.7 2.5-2.6 5.3-3.7 8.1-5.2 12.8-10.3 25.7-16.4 38.2-4.9 9.9-11 19.1-17.7 27.8-10.2 13.2-18.5 27.4-24.9 42.8-7.6 18.3-10.7 37.4-10.3 57.1 0.1 4.7 1.2 9.4 1.9 14.5-2.1-0.4-2.5-1.6-3.1-2.5-7.8-11.2-15.5-22.5-23.5-33.6-3.7-5.1-5.1-10.7-5.3-16.7-0.2-7.5 1.1-14.8 3.3-22 4.1-12.9 10.2-25.1 15.4-37.6 7.7-18.6 13-37.7 13.8-57.9 0.6-15.2-3.3-29.2-11.3-42-4.3-6.9-8.9-13.7-13.8-20.2-11.7-15.8-19.6-33.2-24-52.3-1.8-7.9-3-15.8-4.4-23.7-1.2-7.4-1.4-15.1-2.4-22.6-0.2-1.6-0.3-3.3-1.2-4.7-0.7-1.3-1.8-2-3.3-1.8-1.3 0.2-2 1.1-2.5 2.3-0.4 1.3-0.5 2.7-0.4 4 1.6 14.8-1.8 29-6.2 43-3.7 11.8-7.4 23.6-8.6 35.9-1.8 17.2 0.9 33.5 8.3 49.1 2.2 4.6 4.3 9.1 6.7 13.6 6.5 12.4 7.9 25.4 5.4 39-0.9 5.1-1.9 10.2-2.9 15.4-2.3 11.6-1.4 23 1.2 34.5 2.4 10.9 6 21.4 9.9 32.4-1.4-0.5-1.8-1.4-2.3-2.1-16-21.3-32.6-42.2-50.1-62.2-12.5-14.4-24.6-29-36.1-44.3-2.6-3.5-3.9-7.5-4.8-11.8-2.3-11.8-1.4-23.3 1.6-34.9 2.3-8.6 4.5-17.3 5.6-26.2 0.4-3.7 0.7-7.4 0.6-11.1-0.5-10.9-4.6-20.2-12.2-28-2.4-2.6-5-5.1-7.5-7.7q-8.1-8.6-6.8-20.4c0.7-6.1 1.4-12.1 2.1-18.2 0.5-4.7 0.3-9.5-0.4-14.2-1.3-8.8-7-14.5-13.3-19.9-4.6-3.8-9.1-7.6-13.6-11.5-6.8-6.1-12.5-13.1-18.1-20.3-0.8-1-1.7-2.1-2.6-3-1.1-1.2-2.4-2-4-1.4-1.8 0.7-2.3 2.2-2.3 4q-0.1 1.5 0.2 3.1c1.9 12.1 0.6 24-3 35.7-3.5 11.9-5.4 24.1-4.7 36.6 0.8 14.4 5.6 27.6 12.2 40.2 4.9 9.2 10.2 18.2 15.3 27.3 8.8 15.6 17 31.7 24.5 48 1.4 3.1 3 6.1 4.6 9.3-1.8 0-2.4-1.2-3.2-1.9-23.2-23-47.8-44.3-74.2-63.5-5.5-4-11.2-7.8-16.8-11.7-7.9-5.3-14.8-12-22-18.2-2-1.8-2.4-4.4-2.9-6.8-2.4-12-7.1-23-13.5-33.3-3.9-6.2-8.8-11.7-14-16.8-11.5-11.4-24.7-20-40.4-24.5-11.1-3.2-22.5-3.9-34-4.5-6.9-0.4-13.9-0.8-20.9-1.2-16.3-0.9-30.5-7.3-43.9-16.1-10.4-6.9-20.7-14-31.8-19.7-16.2-8.2-33-14.5-51.5-14.8-8.3-0.2-16.6 0-25 0.4-19 0.8-38-0.4-56.9-3q-11.1-1.5-22.1-3.1c-2.4-0.4-4.8-0.3-7.1 0.3-3.1 0.8-4.3 3.3-3.1 6.2 1 2.4 2.7 4.3 4.4 6.1 7.3 7.6 14.8 15.2 22 22.8 9.6 10.2 19 20.5 28.6 30.7 17.2 18.5 38 31.7 60.7 42.3 29.4 13.7 60.3 20 92.4 21.5 15.7 0.8 31.3 0.5 46.9 0.2 22-0.5 44 0.4 65.9 3.4 12.2 1.6 23.6 5.8 33.6 13.3 3 2.3 6.2 4 9.5 5.7 7.2 3.9 12.8 9.7 19 14.8 8.8 7.3 17.5 14.8 26.2 22.2q9.3 8 18.6 16c0.6 0.4 1.2 0.9 1.2 2-1.2 0.3-2.2-0.5-3.2-0.9-15-5.8-30.5-9.3-46.6-9.2-9.6 0-19 1.5-28.3 3.7-7.4 1.7-14.7 3.7-22.1 5.1-16.5 3-32.7 1.4-48.7-2.4-10.2-2.4-20-5.8-29.8-9.3-19.4-6.9-39-13.1-59-17.7-9.6-2.1-19.2-3.9-29.1-4.3-8.7-0.3-16.9 1.5-24.7 5q-10.2 4.6-20.4 9.2c-12.1 5.4-24.8 9.2-37.5 13.2-1.7 0.5-3.4 1-5 1.8-5.1 2.2-6.2 6.2-3.1 10.8 1.3 2 3 3.8 4.6 5.4 21.7 21.6 46.2 39.4 74.1 52 24.3 11 49.9 16.6 76.5 17.8 22.1 1.1 44.1-0.6 65.8-4.4 21.3-3.7 42-9.7 62.3-17.3 19.9-7.6 40-14.5 59.6-22.8 13.2-5.6 27-5.5 40.9-4.6 6.4 0.4 11.4 2.7 16.1 7.1 30.7 28.9 59.6 59.5 86.9 91.5 17.2 20.2 32.5 41.8 47.3 63.7 0.8 1.2 1.5 2.4 2 3.9-3.7-2.1-7.1-4.3-10.8-6.3-13.5-7.1-27.9-10.8-43-12.5-8.9-0.9-17.8-1-26.7-1.5-16.7-0.9-30.3-7.7-41.6-19.8-7.1-7.4-13.9-15.1-21.6-21.9-13.3-11.5-28.4-18.9-46.2-20-11.8-0.8-23.1 1.7-34.2 5.4-12 3.9-23.6 9.1-35.4 13.7-14.1 5.5-28.5 9.5-43.6 10.9-12.3 1.2-24.4 0.1-36.3-3.1-22.4-6-44.8-12.2-67.2-18.3-1.5-0.4-3.1-0.9-4.7-1-3.8-0.2-5.9 1.8-6 5.6-0.1 1.6 0.3 3.2 0.8 4.8 7.3 25 21.9 44.5 43.8 58.6 14.5 9.3 29.7 17 46 22.5 21.3 7.1 43 10.2 65.5 7.8 9.2-1 18.3-2.3 27.4-3.7 11.8-1.8 23.7-2.8 35.6-2 13.8 0.8 26.4 5.5 38.1 12.8 8.5 5.4 16.9 11 25.5 16.3 14.6 9 30.2 14.7 47.5 15.1 19.8 0.4 38-5 55-14.7 9.4-5.5 18.3-11.8 27.1-18.2 4.3-3.1 8.6-6.4 13.5-8.7 4.2-1.9 5.3-1.8 7.8 2.1 6.2 9.8 12.3 19.7 18.3 29.6 4.1 6.6 7.9 13.2 11.9 19.9q7.5-1 15-2c-0.1-2 0.7-3.5 2.2-4.7 2.4-2 4.7-4.1 7.2-5.9 14.3-10.6 25.8-23.6 34.3-39.3 12.3-22.6 15.4-46.1 9.6-70.8-1.8-7.8-2.4-15.5-2-23.4 0.8-16.2 2.8-32.3 3.4-48.5 0.2-7.4 0.1-14.9 1.1-22.2 0.4-3.5 0.7-7.1 3-10.1q-0.2-0.9-0.3-1.8z"/></svg>