<svg version="1.2" xmlns="http://www.w3.org/2000/svg" viewBox="0 0 1164 956" width="1164" height="956"><style>.a{fill:#3f3731}</style><path fill-rule="evenodd" class="a" d="m97 382.7q1.5-0.9 3-1.8-0.3-2.7 2.3-1.9 7.9-3.9 15.8-7.8c3.3-3.4 8.2-3.7 12.2-5.7 8.7-4.6 17.8-8.2 26.9-11.8 11.6-5.2 23.4-10.3 35-15.6 18.1-8.4 35.8-17.8 54.5-25.2 14.8-5.9 30-10.4 45.9-12 37.3-3.8 73 2.9 106.9 18.7 14.5 6.7 27.3 15.9 39.6 25.8 10.6 8.6 20.5 18 29.8 28 0.5 0.2 1.3 0.3 1.5 0.7 2.1 4 5.4 5.9 9.9 6 1.2 0.1 2.3 0.8 3.4 1.2-0.3 0.7-0.3 1.3-0.2 1.6-0.1-0.3-0.1-0.9 0.2-1.6 16.1 1.5 32.2 2.9 48.3 4.3 1.2 0.1 3.1 1.1 3.6-0.6 0.5-1.4-1.3-2.2-2.3-3-6.4-4.9-12.7-9.7-19.1-14.5-8.8-6.4-17.6-12.8-26.4-19.1-11.2-8.1-22.3-16.3-33.6-24.2-6.7-4.8-12.9-10.5-20.7-13.7-3.6 0.2-5.8-2.4-8.2-4.4-13.2-11-27-21.2-41.8-30-4.3-2.5-9.5-4.3-12.4-8.9-10.5-5.4-20.8-11-31.4-16.2-17.8-8.7-36.3-14.9-56.2-17.2-27.2-3.3-54.2-8.2-80.4-16.5-38-12-73.3-29-104.6-54-19.9-15.9-38-33.6-53.7-53.6-14-18-24-38.6-38.2-56.4-8.4-7.2-8.1-15.7 0.6-19.7q0.7-0.2 1.4-0.4c1-1 2-1.5 3.3-0.6q5.2-0.5 10.4-1c2.5-0.7 4.8-2.2 7.5-1.9 1.4-0.6 2.9-1.3 4.5-1 5.5-2.4 11.3-3.4 17.3-3.2 25.5-1.9 50.8-0.9 75.9 3.8 31.3 5.7 60.1 16.8 84.3 38 18.5 16.2 32.9 35.6 44.6 57 8.9 16.2 18.2 32.1 29.5 46.7 1.4 0.4 2.2 1.1 1.7 2.6q0.6 0.6 1.2 1.2c1.4 0.3 2.1 1.1 1.7 2.6q0.5 0.7 1.1 1.4c3.5 1.6 5 5.2 7.1 8 6.4 8.1 14.7 14.3 20.8 22.6 12.5 10.3 26.7 18 39.8 27.3 9.4 6.7 19 13 28.4 19.6 7.6 5.4 14.8 11.7 22.9 16.1 16.3 8.9 32.8 17.5 48.6 27.2 17.6 10.8 33.9 23.2 50.5 35.4 9.1 6.7 17.8 14.1 26.8 21.1 3.2 2.5 6.6 4.7 10.9 7.7-8.1-17.4-17.6-32.4-28.5-46.6-3.6-4.7-6.7-9.7-12.7-12.3-22.4-9.4-38.4-25.7-50-46.9-11.1-20.4-20.5-41.4-28.1-63.2-7.3-21-12.1-42.6-14.3-64.8-1.8-18.3-1-36.6-0.8-54.9 0.2-6.8-0.4-13.8 1.8-20.5q-0.3-0.6-0.6-1.2c-0.5-9.3 1.6-18.2 3.6-27.1 1.1-4.7 0.7-9.9 4.5-13.7-0.6-1.1-0.3-1.9 0.8-2.5 0.5-1.7 1.7-3 3.1-4 1.8-4.4 5.1-6.1 9.8-5.7 3.1-0.2 5.9 0.4 8.5 2.1 9.2 3.5 15.5 11.1 23.1 16.8 6 4.8 11.8 9.8 18 14.5 15.8 11.9 31.6 23.9 46.8 36.7 16.9 14.3 31.7 30.4 41.7 50.5 11 22.1 17.4 45.2 14.5 70-2.2 18.9-7.9 37-14.6 54.7-6.1 16-14.7 30.4-28.3 41.3-0.9 0.8-1.7 1.8-2.7 2.3-3.7 2-4.2 4.5-1.9 8 1.8 2.6 2.5 5.7 2.7 8.9 4.2 10.1 7.7 20.5 12.7 30.2 11.3 22.5 21.1 45.8 38.3 64.9 7.9 8.8 14.9 18.3 23.6 26.3 2 1.9 5 3 6.4 5.2 4.6 7.3 11.9 11.9 17.4 18.3 6.9 8 14.5 15.4 21.4 23.4 9.3 10.8 18.7 21.5 29 31.4 8.9 8.5 18 16.8 26.9 25.3 16.4 15.6 32.5 31.4 49 46.9 15 14.2 30.5 27.8 45.4 42.1 11.7 11.3 23.9 22.2 35 34.2 1.3 1.5 2.6 3.3 5.3 3.7-3.3-15.6-6.5-31-9.7-46.3-1.3-4.2-6.1-3.7-8.6-6.4-12.3-5.7-23.2-13.6-32.2-23.4-13.4-14.7-23.1-31.9-31.6-49.6-8.2-17-15.1-34.4-21-52.3-10.3-30.8-16.2-62.4-16.1-94.7 0-35.2 7.2-69.3 20-102.2 2.2-8.4 5.3-16.5 10-23.9 2.3-5.4 4.6-10.8 9.2-14.8-0.2-1.6 0.2-2.6 2.1-2.1q1.7-0.7 3.4-1.5c2.4-2.6 5.6-1.3 7.4 0 6.6 4.6 11.9 10.5 15 18.2 5.1 7.4 10.3 14.8 15.2 22.3 7 10.6 14.9 20.6 21.1 31.8 0.2 4.2 1.8 8 3.5 11.7-1.7-3.7-3.3-7.5-3.5-11.7 0.4 0.1 1 0.1 1.2 0.4 5.4 8.3 11.9 15.9 16.5 24.7 0.3 0.2 0.6 0.3 0.8 0.6 17.7 26.3 33.4 53.7 43.6 84 9.4 28.1 14.7 56.7 12.1 86.5-2.4 27.6-13 51.5-30.7 72.6-1.3 3.2-3.2 6-6.1 8.1-2.5 2.3-2.9 5.2-2.6 8.4 0.4 4 0.4 8 0.7 12 1.9 23.2 5.8 45.8 16.8 66.7 7.6 14.4 15.8 28.5 22.5 43.4 0.8 1.9 2.1 3.4 3.6 4.8 18.2 17.6 36.6 35.2 54.7 52.9 16.3 15.9 32.2 32.1 48.7 47.9 15.5 14.9 31.6 29.3 47.4 43.9 4.3 3.9 8.7 7.5 13.1 11.3q0.5-0.3 1-0.6-3.4-21.8-6.7-43.7c-1.4-7.4-7.6-12.1-10.6-18.6q-7.3-10.1-14.5-20.2c-15.8-22.2-29.7-45.6-38.6-71.6-13.2-38.5-18.5-78-15.9-118.5 1.7-27.7 7.3-54.6 16.6-80.7 4.4-12.5 8.6-25.3 15-37.1-1.2-1.8 0.2-3.2 0.8-4.7 1.6-3.9 3.2-7.9 5.1-11.7 3.4-6.8 4.9-14.5 9.1-20.9 0.6-2.2 1.1-4.5 2-6.5 2.3-5.2 3.1-11.2 7.8-15.1-0.1-1 0.5-1.5 1.1-2.1 1.7-3.7 5.3-4 8.4-3.6 5 0.8 9.7 2.7 11.6 8.1q0.6 0.6 1.1 1.2c2.1 1 2.8 2.7 2.8 4.9q1 2 2.1 4.1c1.4 0.8 1.8 2.4 2.5 3.7 3.7 7.5 7.4 14.9 10.9 22.4 1.5 3.1 4.8 5.3 4.6 9.3q7.5 14.4 15 28.8c1.8 0.8 2.4 2.2 2.1 4.1q4 7.3 8 14.6c2 1 2.7 2.8 2.6 4.9 4 7.3 7.8 14.7 11.9 21.9 23.4 40.2 32.4 83 24.7 129.2-8 47.3-21.3 92.8-45.8 134.6-4.3 7.3-9.3 14.4-15.8 20.2-0.8 2.3-1.1 4.5-1 7.1 0.6 17.2 3.3 34.2 4.7 51.3 1.2 2.3 0.7 5.3 2.7 7.2 3.9 3.6 7.1 8 11.1 11.6 10 8.9 19.5 18.2 29.4 27.3 2.7 2.5 2.8 4.1-1 5.3-0.7 0.2-1.4 0.6-2.1 0.9q-4.2 2.1-8.4 4.2c-1 0.5-2 0.8-2.9 1.5-3.9 2.9-6.8 1.8-10.3-1.4-7.2-6.5-14-13.6-21-20.5-1.1-0.1-2-0.7-2.4-1.8-13.1-11.1-25-23.3-37.3-35.2-7.3-7.2-14.8-14.1-24.7-18.1-8.9-3.7-18.2-6.8-26.5-11.7-10.8-1.5-21.7-1.4-32.5-2-4.7-0.2-9.7 0.7-14.3-1.5-10 0.6-19.9-0.3-29.9-0.5-12.6-0.3-25.1 1.6-37.6 2.1-3.9 1.8-10.5-0.4-10.4 7.1-0.6 4.1-1.2 8.2-1.8 12.3-2.9 18.5-12.4 32.2-28.7 41.7-14.7 8.5-30.3 14.3-46.4 19.2-33.7 10.2-67.9 12.7-102.8 7.3-30.7-4.8-59.7-14.7-87.7-28-16.3-7.8-32.5-15.9-47.7-25.8-7.4-4.8-14.7-9.9-21.6-15.4-2.7-0.2-4.3-2.3-5.8-4.1-3.6-4.2-9.6-5.7-12.6-10.7-2.5-4.2-7.5-6-10-10.2-3.8-4.6-7.4-9.3-6.4-15.8q0.1-1.1 0.2-2.2c0.5-4.5 1.5-8.7 6.6-10.2 1.1-2.1 3.6-2.5 5.1-4.1 0.6-2 2.5-2.5 4.1-3.4 6.5-3.5 13-7 19.3-10.7 9.3-5.4 18.5-10.9 27.7-16.4 17.5-10.9 34.8-22.2 52.8-32.2 21-11.5 41.8-22.9 65.8-27.4 31.7-6 62.9-5.8 93.7 4.2 30.9 10.1 55.6 29.4 77.2 53.1 6 6.5 11.5 13.6 17.8 19.9 8.4 8.2 18.7 13.9 28.7 19.8 4.5 2.7 8.4 6.3 14.3 6.8 21.8 1.6 43.6 3.8 65.4 5.8 5.3 0.5 10.5 1.2 16.2 1.8-0.4-1.1-0.5-1.6-0.8-1.9-13.6-13.8-27.1-27.6-40.8-41.3-8.6-8.6-17.3-17.1-25.8-25.7-12-12.1-23.9-24.3-35.9-36.4-11.7-11.8-23.5-23.4-35.2-35.2-16.5-16.6-32.8-33.3-49.4-49.8-14.2-14.2-29-27.9-43.1-42.3-5.1-5.3-10.9-9.9-15.6-15.7-2.3-2.9-5.1-6.9-8.7-7.2-10.8-1.1-21.4-4.3-32.4-3.7-8.9 0.5-17.9 0.1-26.8 0.1-0.6 0.2-1.2 0.5-1.8 0.4-4.4-0.3-5.8 1.7-4.8 5.9 0.3 1.5 0.6 3.4-1 4.7 1.1 15.2-2.6 29.4-13.5 40.2-13.1 12.9-29.3 21.4-46.6 27.5-36.6 13-74.5 16-113 12.3-52.9-5.1-103-20.1-151-42.5-12.6-5.9-25.3-12-33.9-23.7-2.2-3.1-3.8-6.3-2.5-10.3-0.3-2.9 0.7-5.3 2.5-7.5-0.1-1.9 0.4-3.3 2.6-3.4q1.2-0.7 2.4-1.4c-0.2-1.3 0.8-1.9 1.7-2.4 4.7-2.9 9.2-6 14-8.7 5-2.8 10.2-5.2 15.3-7.8q6.1-3.3 12.2-6.7c1-2 2.7-2.7 4.9-2.6q4-2.4 8-4.7c0.3-1.4 1.2-1.7 2.4-1.4q2.7-1.7 5.5-3.5c0.3-1.4 1.4-1.7 2.6-1.6q1.8-1.3 3.6-2.5c0.4-1.4 1.4-1.6 2.6-1.6q3.8-2.5 7.6-4.9c7.4-7.5 16-13.3 25.4-18 2.4-2.2 5-4 7.8-5.6 32.4-18.5 67.6-23 104-20.8 41.9 2.5 77.6 20 109.1 46.7 8.4 7.1 16.5 14.4 24.7 21.6 1.7 1.5 3.4 2.4 5.8 2.4 12.4-0.2 24.9-0.1 37.4-0.1q0.2-0.6 0.4-1.3c-2-3.1-4.6-5.6-7.3-8.2q-15.5-14.9-30.8-29.9c-15.6-15.4-31.3-30.9-46.8-46.4-13.5-13.5-26.8-27.3-42.2-38.6-6.9-5.1-13.5-10.9-21.7-13.8q-20-7.2-39.8-14.9c-15.9-6.2-32.1-11.6-48.8-15.3-3.5 0.5-6.7-0.4-9.7-2.1q-1.3 0.2-2.6 0.4c-0.2 3.3-0.7 6.5-2.7 9.2-3.4 8-7 16-12.8 22.3-12.5 13.5-27.8 23.3-45 29.9-25.2 9.8-51.7 13.8-78.4 16.6-30.4 3.3-60.2-1.3-89.5-9.4-41.6-11.3-81.3-27.6-120.6-45.1-1.3-0.6-3-0.8-3.5-2.5-0.6 0.4-1.2 0-1.7-0.3-7.5-2.5-14.6-5.7-20.9-10.5-4.5-2.4-8.3-5.4-10.3-10.4-3-4.2-1.4-10.4 3.6-13.9zm329.9-79.2l0.1-0.1q-0.1 0.1-0.1 0.1zm-120.9-85.4c-0.5-1.2-1.4-2-2.3-2.7 0.9 0.7 1.7 1.5 2.3 2.7zm-4.3-13.2c0 0 0 0 0-0.1zm7.6 14.4q0.1 0.3 0.3 0.6-0.2-0.3-0.3-0.6zm789 594.1l-0.4-0.1c0 0 0.4 0.1 0.4 0.1zm-27.6-379.9q0.1-0.1 0.3-0.2-0.2 0.1-0.3 0.2zm-595.8-36.1q-2 0.5-3.8 1.2 1.8-0.7 3.8-1.2z"/></svg>