<svg version="1.2" xmlns="http://www.w3.org/2000/svg" viewBox="0 0 81 75" width="81" height="75"><style>.a{fill:#303030}</style><path fill-rule="evenodd" class="a" d="m81 63.1c0 6.6-5.3 11.9-11.8 11.9-6.5 0-11.8-5.3-11.8-11.9q0-1.5 0.4-2.8h-3.8l0.1 2.9c0 1.1-0.5 2.1-1.2 2.9-0.8 0.8-1.9 1.3-3 1.3-2.3 0-4.2-1.9-4.2-4.2v-2.9h-13.2q0.4 1.3 0.4 2.8c0 6.6-5.3 11.9-11.8 11.9-6.5 0-11.8-5.3-11.8-11.9q0-1.5 0.3-2.8h-4.2c-2.4 0-4.4-2-4.4-4.4 0-2.1 0-34.9 0-34.9 0-1.1 0.9-2 2.1-2h19.9c1.2 0 2.1 0.9 2.1 2v23.3h4.9v-21.7c0-1.6 0.7-2.8 2.8-2.8h6.8c0.1-0.1 14.9 1.8 14.9 1.8 0.6 0.1 1.2 0.4 1.7 0.8 0-1 0.5-1.9 1.2-2.7 1.7-1.7 4.6-1.9 6.2 0 5.8 7.2 12.8 24.6 15.1 33.1 0.4 1.3 0.4 2.5 0.2 3.6 1.3 1.9 2.1 4.2 2.1 6.7zm-16.2 0c0 2.5 2 4.5 4.4 4.5 2.5 0 4.5-2 4.5-4.5 0-2.5-2-4.5-4.5-4.5-2.4 0-4.4 2-4.4 4.5zm-43.7-4.5c-2.5 0-4.5 2-4.5 4.5 0 2.5 2 4.5 4.5 4.5 2.4 0 4.4-2 4.4-4.5 0-2.5-2-4.5-4.4-4.5zm32.8-11.4l7.7-10.3-0.9-7.6h-11.8c-1.3 0-2.5-1-2.7-2.3l-3.4-0.4v14.2h6.9c2.3 0 4.1 1.9 4.2 4.2zm-26.8-38.8c0-4.6 3.7-8.4 8.3-8.4 1.4 0 2.7 0.4 3.9 1h7.7c0.7 0 1.3 0.3 1.6 0.8 0.3 0.5 0.3 1.2 0 1.8l-0.6 1.3c-0.5 1-1.6 1.7-2.7 1.7l-1.8 0.1q0.1 0.8 0.2 1.7c0 4.6-3.8 8.4-8.3 8.4-4.6 0-8.3-3.8-8.3-8.4z"/></svg>