<svg version="1.2" xmlns="http://www.w3.org/2000/svg" viewBox="0 0 43 74" width="43" height="74"><style>.a{fill:#303030}</style><path class="a" d="m6.2 25c-0.2 0.6-0.2 1.2-0.2 2l-2.4 43.4c0 2 1.3 3.6 2.9 3.6h4.4c1.6 0 2.9-1.6 2.9-3.6l-2.4-43.4q0-0.9-0.2-1.7c4-1.3 7-6.4 7-12.4 0-7.1-4.1-12.9-9.1-12.9-5 0-9.1 5.8-9.1 12.9 0 5.6 2.6 10.4 6.2 12.1zm19.2 3.3c0 1.4 1.2 2.5 2.7 2.5h2.5l-2.2 39.6c0 2 1.3 3.6 2.9 3.6h4.4c1.6 0 2.9-1.6 2.9-3.6l-2.2-39.6h2.5c1.5 0 2.7-1.1 2.7-2.5l1.4-7q0-0.1-0.1-0.2 0.1-0.2 0.1-0.4v-14.5c0-1.1-1-2.1-2.2-2.1-1.2 0-2.2 1-2.2 2.1v13 1.5c0 0.8-0.6 1.4-1.4 1.4-0.8 0-1.5-0.6-1.5-1.4v-1.5-13c0-1.1-1-2.1-2.2-2.1-1.2 0-2.2 1-2.2 2.1v13 1.5c0 0.8-0.6 1.4-1.4 1.4-0.8 0-1.5-0.6-1.5-1.4v-1.5-13c0-1.1-1-2.1-2.2-2.1-1.2 0-2.2 1-2.2 2.1v14.5q0 0.1 0.1 0.3-0.1 0.2-0.1 0.3z"/></svg>