<svg version="1.2" xmlns="http://www.w3.org/2000/svg" viewBox="0 0 1300 1134" width="1300" height="1134"><style>.a{fill:#ecbd00}</style><path class="a" d="m1256 375.4q8.6 21.8 17.1 43.5c0.2 1.4 0.3 2.8 0.8 4.1 7.5 20.9 12.9 42.4 16.9 64.1 21.2 113.6 5.7 221.9-47.1 324.7-18.5 36.1-41 69.4-67.1 100.3-58.5 69-130 120.7-211.7 158.5q-27 12.5-55.3 22.3c-32.1 11.1-64.6 20.3-97.8 26.9-65 13.1-130.5 17-196.6 12.2-67.4-4.9-133.1-18.6-196.8-41.5-37.7-13.6-74-30-108.9-49.7-54.4-30.7-103.7-68-147.5-112.7-50.2-51.3-89.7-109.6-118.5-175.3-12.3-28.1-21.6-57.3-28.5-87.2-12.9-56.4-16.4-113.3-9.7-170.8 7.8-67.5 29-130.6 62.2-189.6 25.1-44.5 56.1-84.4 92.5-120.1 48.2-47.4 102.9-85.4 163.7-114.6 5.9-2.9 11.7-5.9 17.6-8.8q35.2-13.9 70.5-27.8c1.2-0.2 2.4-0.2 3.5-0.6 20.2-6.5 40.8-11.8 61.5-16.4 68.7-15.1 138.1-19.9 208.2-15 68.1 4.8 134.4 18.5 198.7 41.7 37.5 13.5 73.7 29.8 108.4 49.4 73.5 41.6 137.5 94.5 190 161 25.2 32 47 66.1 64.9 102.8 3 6.2 4.9 12.9 9 18.6z"/></svg>